<svg width="32" height="32" viewBox="0 0 32 32" fill="none" xmlns="http://www.w3.org/2000/svg">
<path d="M10.366 17.3104L16.6581 23.7735C16.9149 24.0373 17.038 24.3451 17.0273 24.6968C17.0166 25.0486 16.8828 25.3563 16.626 25.6201C16.3692 25.8619 16.0696 25.9883 15.7271 25.9993C15.3847 26.0103 15.0851 25.8839 14.8283 25.6201L6.35313 16.9147C6.22472 16.7828 6.13376 16.6399 6.08026 16.4861C6.02675 16.3322 6 16.1673 6 15.9914C6 15.8156 6.02675 15.6507 6.08026 15.4968C6.13376 15.3429 6.22472 15.2 6.35313 15.0681L14.8283 6.36273C15.0637 6.12091 15.3579 6 15.7111 6C16.0642 6 16.3692 6.12091 16.626 6.36273C16.8828 6.62653 17.0112 6.93979 17.0112 7.30251C17.0112 7.66524 16.8828 7.9785 16.626 8.2423L10.366 14.6724H24.7159C25.0797 14.6724 25.3847 14.7988 25.6308 15.0516C25.8769 15.3044 26 15.6177 26 15.9914C26 16.3651 25.8769 16.6784 25.6308 16.9312C25.3847 17.184 25.0797 17.3104 24.7159 17.3104H10.366Z" fill="#434655"/>
</svg>
