<svg width="32" height="32" viewBox="0 0 32 32" fill="none" xmlns="http://www.w3.org/2000/svg">
<mask id="mask0_439_76575" style="mask-type:alpha" maskUnits="userSpaceOnUse" x="0" y="0" width="32" height="32">
<rect width="32" height="32" fill="#D9D9D9"/>
</mask>
<g mask="url(#mask0_439_76575)">
<path d="M16 18.1293L8.54753 25.5817C8.26869 25.8606 7.91382 26 7.48289 26C7.05196 26 6.69708 25.8606 6.41825 25.5817C6.13942 25.3029 6 24.948 6 24.5171C6 24.0862 6.13942 23.7313 6.41825 23.4525L13.8707 16L6.41825 8.54753C6.13942 8.26869 6 7.91382 6 7.48289C6 7.05196 6.13942 6.69708 6.41825 6.41825C6.69708 6.13942 7.05196 6 7.48289 6C7.91382 6 8.26869 6.13942 8.54753 6.41825L16 13.8707L23.4525 6.41825C23.7313 6.13942 24.0862 6 24.5171 6C24.948 6 25.3029 6.13942 25.5817 6.41825C25.8606 6.69708 26 7.05196 26 7.48289C26 7.91382 25.8606 8.26869 25.5817 8.54753L18.1293 16L25.5817 23.4525C25.8606 23.7313 26 24.0862 26 24.5171C26 24.948 25.8606 25.3029 25.5817 25.5817C25.3029 25.8606 24.948 26 24.5171 26C24.0862 26 23.7313 25.8606 23.4525 25.5817L16 18.1293Z" fill="#434655"/>
</g>
</svg>
