<svg width="13" height="14" viewBox="0 0 13 14" fill="none" xmlns="http://www.w3.org/2000/svg">
<path d="M11.5483 7.19841C11.5483 7.05914 11.6036 6.92558 11.7021 6.8271C11.8005 6.72862 11.934 6.67329 12.0733 6.67329C12.2125 6.67329 12.346 6.72862 12.4444 6.8271C12.5429 6.92558 12.5982 7.05914 12.5982 7.19841V12.9747C12.5982 13.114 12.5429 13.2476 12.4444 13.3461C12.346 13.4445 12.2125 13.4999 12.0733 13.4999H0.524924C0.385706 13.4999 0.252189 13.4445 0.153747 13.3461C0.0553044 13.2476 0 13.114 0 12.9747V1.42209C0 1.28282 0.0553044 1.14926 0.153747 1.05078C0.252189 0.952298 0.385706 0.896973 0.524924 0.896973H6.29909C6.43831 0.896973 6.57182 0.952298 6.67027 1.05078C6.76871 1.14926 6.82401 1.28282 6.82401 1.42209C6.82401 1.56136 6.76871 1.69493 6.67027 1.79341C6.57182 1.89189 6.43831 1.94721 6.29909 1.94721H1.04985V12.4496H11.5483V7.19841Z" fill="#AAAAAA"/>
<path d="M12.5384 0.960194C12.6847 1.10649 12.8008 1.2802 12.88 1.4714C12.9592 1.6626 13 1.86753 13 2.0745C13 2.28146 12.9592 2.4864 12.88 2.6776C12.8008 2.86879 12.6847 3.0425 12.5384 3.1888L7.09491 8.6343C7.01463 8.71489 6.91037 8.76723 6.7978 8.78343L5.06555 9.03129C4.98482 9.04289 4.9025 9.03551 4.82512 9.00974C4.74774 8.98396 4.67742 8.94051 4.61975 8.88282C4.56208 8.82513 4.51864 8.75479 4.49288 8.67737C4.46712 8.59996 4.45974 8.51761 4.47133 8.43685L4.7191 6.70396C4.73501 6.59147 4.78695 6.48719 4.86713 6.40674L10.3116 0.961244C10.607 0.66591 11.0074 0.5 11.425 0.5C11.8426 0.5 12.2431 0.66591 12.5384 0.961244V0.960194Z" fill="#AAAAAA"/>
</svg>
