<svg width="16" height="16" viewBox="0 0 16 16" fill="none" xmlns="http://www.w3.org/2000/svg">
<mask id="mask0_3104_97571" style="mask-type:alpha" maskUnits="userSpaceOnUse" x="0" y="0" width="16" height="16">
<rect width="16" height="16" fill="#D9D9D9"/>
</mask>
<g mask="url(#mask0_3104_97571)">
<path d="M2.31079 15C1.95033 15 1.64174 14.8717 1.38505 14.615C1.12835 14.3583 1 14.0497 1 13.6892V4.07672C1 3.71625 1.12835 3.40767 1.38505 3.15098C1.64174 2.89428 1.95033 2.76593 2.31079 2.76593H8.0091L6.69831 4.07672H2.31079V13.6892H11.9233V9.3381L13.2341 8.0091V13.6892C13.2341 14.0497 13.1057 14.3583 12.849 14.615C12.5923 14.8717 12.2837 15 11.9233 15H2.31079ZM10.2848 2.92978L11.2315 3.87646L6.6801 8.39142V9.3199H7.60858L12.1417 4.80494L13.052 5.73342L8.53706 10.2484C8.40355 10.3819 8.25821 10.479 8.10104 10.5397C7.94388 10.6003 7.77858 10.6307 7.60514 10.6307H6.02802C5.84376 10.6307 5.68791 10.5679 5.56047 10.4423C5.43303 10.3166 5.36931 10.161 5.36931 9.97529V8.41252C5.36931 8.24067 5.40255 8.07335 5.46904 7.91056C5.53554 7.74778 5.62973 7.60464 5.75163 7.48114L10.2848 2.92978ZM13.052 5.73342L10.2848 2.92978L11.8322 1.38231C12.0883 1.12744 12.3951 1 12.7525 1C13.11 1 13.4161 1.12744 13.671 1.38231L14.6131 2.32924C14.871 2.58395 15 2.89132 15 3.25134C15 3.61136 14.8726 3.91683 14.6177 4.16775L13.052 5.73342Z" fill="#B3B3B3"/>
</g>
</svg>
