<svg width="24" height="24" viewBox="0 0 24 24" fill="none" xmlns="http://www.w3.org/2000/svg">
<path d="M12.1391 9.6091L9.54545 12.1946C9.54545 12.1536 9.54545 12.1046 9.54545 12.0636C9.54545 11.4127 9.80406 10.7883 10.2644 10.328C10.7247 9.86771 11.349 9.6091 12 9.6091C12.0491 9.6091 12.09 9.6091 12.1391 9.6091ZM15.6573 10.2636L14.3891 11.5318C14.43 11.7036 14.4545 11.8755 14.4545 12.0636C14.4545 12.7146 14.1959 13.339 13.7356 13.7993C13.2753 14.2596 12.651 14.5182 12 14.5182C11.82 14.5182 11.64 14.4936 11.4682 14.4527L10.2 15.7209C10.7482 15.9909 11.3536 16.1546 12 16.1546C13.085 16.1546 14.1255 15.7236 14.8927 14.9564C15.6599 14.1892 16.0909 13.1486 16.0909 12.0636C16.0909 11.4173 15.9273 10.8118 15.6573 10.2636ZM20.1818 5.7391L18.3164 7.60456L17.9482 7.97274C19.2982 9.03638 20.3618 10.4273 21 12.0636C19.5845 15.6555 16.0909 18.2 12 18.2C10.7318 18.2 9.52091 17.9546 8.41636 17.5127L8.06455 17.8564L5.67546 20.2455L4.63636 19.2064L19.1427 4.70001M12 7.97274C10.915 7.97274 9.87449 8.40374 9.10729 9.17094C8.3401 9.93813 7.90909 10.9787 7.90909 12.0636C7.90909 12.5873 8.01546 13.0946 8.20364 13.5527L5.80636 15.95C4.57909 14.9273 3.59727 13.5855 3 12.0636C4.41545 8.47183 7.90909 5.92728 12 5.92728C13.1455 5.92728 14.2418 6.13183 15.2727 6.50001L13.4973 8.2591C13.0309 8.0791 12.5318 7.97274 12 7.97274Z" fill="#CCCCCC"/>
</svg>
