<svg width="16" height="16" viewBox="0 0 16 16" fill="none" xmlns="http://www.w3.org/2000/svg">
<mask id="mask0_2717_1252" style="mask-type:alpha" maskUnits="userSpaceOnUse" x="0" y="0" width="16" height="16">
<rect width="16" height="16" fill="#D9D9D9"/>
</mask>
<g mask="url(#mask0_2717_1252)">
<path d="M8.03904 15.5C5.94529 15.5 4.17185 14.7735 2.71874 13.3207C1.26562 11.8679 0.539062 10.0948 0.539062 8.0015C0.539062 5.90818 1.26562 4.13461 2.71874 2.68078C4.17185 1.22693 5.94529 0.5 8.03904 0.5C9.20827 0.5 10.3147 0.759942 11.3583 1.27982C12.4018 1.79969 13.2698 2.53335 13.9621 3.4808V1.25C13.9621 1.0375 14.034 0.859375 14.1778 0.715625C14.3216 0.571875 14.4998 0.5 14.7124 0.5C14.925 0.5 15.1031 0.571875 15.2467 0.715625C15.3903 0.859375 15.4621 1.0375 15.4621 1.25V5.7115C15.4621 5.96758 15.3754 6.18224 15.2022 6.35547C15.029 6.52871 14.8143 6.61533 14.5582 6.61533H10.0967C9.88423 6.61533 9.70611 6.54343 9.56236 6.39963C9.41861 6.25581 9.34674 6.07761 9.34674 5.86503C9.34674 5.65243 9.41861 5.47433 9.56236 5.33075C9.70611 5.18717 9.88423 5.11538 10.0967 5.11538H13.2967C12.7698 4.14999 12.039 3.38941 11.1044 2.83363C10.1698 2.27786 9.148 1.99998 8.03904 1.99998C6.37237 1.99998 4.9557 2.58331 3.78904 3.74998C2.62237 4.91664 2.03904 6.33331 2.03904 7.99998C2.03904 9.66664 2.62237 11.0833 3.78904 12.25C4.9557 13.4166 6.37237 14 8.03904 14C9.20127 14 10.2652 13.6948 11.2309 13.0846C12.1966 12.4743 12.9281 11.6602 13.4256 10.6423C13.5204 10.4602 13.6599 10.333 13.8438 10.2606C14.0278 10.1881 14.2153 10.184 14.4064 10.2481C14.6102 10.3122 14.7528 10.4455 14.8342 10.648C14.9156 10.8506 14.9089 11.0429 14.814 11.225C14.1948 12.5198 13.2807 13.556 12.0717 14.3336C10.8627 15.1112 9.51845 15.5 8.03904 15.5Z" fill="#434655"/>
</g>
</svg>
