<svg width="16" height="16" viewBox="0 0 16 16" fill="none" xmlns="http://www.w3.org/2000/svg">
<path d="M0.19922 8.00336C0.19922 10.072 1.02089 12.0559 2.48351 13.5188C3.94614 14.9816 5.92993 15.8037 7.99856 15.804H7.99858C10.0674 15.804 12.0516 14.9821 13.5145 13.5192C14.9774 12.0563 15.7992 10.0722 15.7992 8.00336V7.90336H15.6992H14.4158H14.3158V8.00336C14.3158 9.67878 13.6502 11.2856 12.4655 12.4703C11.2808 13.655 9.674 14.3206 7.99858 14.3206C6.32315 14.3206 4.71635 13.655 3.53164 12.4703C2.34694 11.2856 1.68138 9.67878 1.68138 8.00335C1.68128 6.73094 2.06544 5.48816 2.78353 4.43775C3.50162 3.38733 4.52018 2.57825 5.70582 2.11645C6.89147 1.65464 8.18894 1.56164 9.42833 1.84962C10.5924 2.12011 11.6544 2.71487 12.4922 3.56276L10.8619 3.56276C10.6652 3.56276 10.4766 3.64091 10.3375 3.78C10.1984 3.9191 10.1202 4.10776 10.1202 4.30448C10.1202 4.5012 10.1984 4.68986 10.3375 4.82896C10.4766 4.96806 10.6652 5.0462 10.8619 5.0462L13.8523 5.0462C14.0491 5.0462 14.2377 4.96806 14.3768 4.82896C14.5159 4.68986 14.5941 4.5012 14.5941 4.30448V1.31663C14.5941 1.11992 14.5159 0.931256 14.3768 0.792156C14.2377 0.653057 14.0491 0.574912 13.8523 0.574912C13.6556 0.574912 13.467 0.653057 13.3279 0.792156C13.1888 0.931256 13.1106 1.11992 13.1106 1.31663V2.10723C12.0249 1.16564 10.6988 0.541279 9.27826 0.305276C7.78368 0.0569819 6.24914 0.249296 4.86205 0.858732C3.47496 1.46817 2.29537 2.46835 1.46733 3.73712C0.63929 5.00589 0.198648 6.48829 0.19922 8.00336ZM0.19922 8.00336H0.29922M0.19922 8.00336H0.29922M0.29922 8.00336C0.29922 10.0455 1.11036 12.004 2.55423 13.4481C3.99811 14.8922 5.95646 15.7037 7.99858 15.704C10.0409 15.704 11.9996 14.8927 13.4438 13.4485C14.8643 12.028 15.6725 10.1095 15.6986 8.10335H15.6992V8.00336H15.5992H14.5158H14.4158C14.4158 9.7053 13.7397 11.3375 12.5362 12.541C11.3328 13.7445 9.70052 14.4206 7.99858 14.4206C6.29663 14.4206 4.66439 13.7445 3.46093 12.541C2.25747 11.3375 1.58138 9.7053 1.58138 8.00336C1.58128 6.7108 1.97152 5.44835 2.70098 4.38131C3.43043 3.31427 4.46512 2.49238 5.66953 2.02326C6.87395 1.55415 8.19195 1.45967 9.45096 1.75221C10.6654 2.0344 11.7704 2.664 12.6317 3.56276L0.29922 8.00336Z" fill="#434655" stroke="#434655" stroke-width="0.2"/>
</svg>
