<svg width="22" height="22" viewBox="0 0 22 22" fill="none" xmlns="http://www.w3.org/2000/svg">
<path d="M17.7181 3.52364V2.3202C17.7181 2.08596 17.8111 1.86132 17.9768 1.69569C18.1425 1.53006 18.3672 1.43702 18.6015 1.43702C18.8358 1.43702 19.0605 1.53006 19.2261 1.69569C19.3918 1.86132 19.4849 2.08596 19.4849 2.3202V6.19946C19.4849 6.4337 19.3918 6.65834 19.2261 6.82397C19.0605 6.98959 18.8358 7.08264 18.6015 7.08264H14.7178C14.4835 7.08264 14.2588 6.98959 14.0932 6.82397C13.9275 6.65834 13.8344 6.4337 13.8344 6.19946C13.8344 5.96523 13.9275 5.74058 14.0932 5.57496C14.2588 5.40933 14.4835 5.31629 14.7178 5.31629H17.0231C15.9051 4.13228 14.4621 3.30333 12.8741 2.93444C11.2488 2.5569 9.54737 2.67882 7.99257 3.28424C6.43778 3.88967 5.1021 4.95036 4.16044 6.32744C3.21877 7.70452 2.71502 9.33378 2.71514 11.0019C2.71514 13.1983 3.58792 15.3048 5.14147 16.858C6.69503 18.4111 8.8021 19.2836 10.9992 19.2836C13.1962 19.2836 15.3033 18.4111 16.8569 16.858C18.4104 15.3048 19.2832 13.1983 19.2832 11.0019V10.9519H19.3332H21H21.05V11.0019C21.05 13.6668 19.9911 16.2226 18.1062 18.107C16.2213 19.9914 13.6648 21.05 10.9992 21.05C8.33381 21.0496 5.77777 19.9907 3.89323 18.1064C2.0087 16.2221 0.950001 13.6665 0.950001 11.0019C0.949265 9.05033 1.51702 7.14077 2.58391 5.50645C3.65081 3.87213 5.17068 2.58379 6.95789 1.79877C8.74509 1.01375 10.7223 0.766029 12.648 1.08586C14.5364 1.3995 16.2952 2.24563 17.7181 3.52364Z" fill="#222222" stroke="#222222" stroke-width="0.1"/>
</svg>
