<svg width="18" height="20" viewBox="0 0 18 20" fill="none" xmlns="http://www.w3.org/2000/svg">
<path d="M5.84289 14.1411H4.38574V15.6027H5.84289V14.1411Z" fill="#222222"/>
<path d="M13.6144 14.1411H12.1572V15.6027H13.6144V14.1411Z" fill="#222222"/>
<path d="M5.84289 10.2437H4.38574V11.7052H5.84289V10.2437Z" fill="#222222"/>
<path d="M9.72863 14.1411H8.27148V15.6027H9.72863V14.1411Z" fill="#222222"/>
<path d="M9.72863 10.2437H8.27148V11.7052H9.72863V10.2437Z" fill="#222222"/>
<path d="M15.8 2.44872H14.5857V0.5H13.1286V2.44872H4.87143V0.5H3.41429V2.44872H2.2C1.26743 2.44872 0.5 3.21846 0.5 4.15385V17.7949C0.5 18.7303 1.26743 19.5 2.2 19.5H15.8C16.7326 19.5 17.5 18.7303 17.5 17.7949V4.15385C17.5 3.21846 16.7326 2.44872 15.8 2.44872ZM16.0429 18.0385H1.95714V7.80769H16.0429V18.0385ZM16.0429 6.34615H1.95714V3.91026H16.0429V6.34615Z" fill="#222222"/>
<path d="M13.6144 10.2437H12.1572V11.7052H13.6144V10.2437Z" fill="#222222"/>
</svg>
