<svg width="16" height="16" viewBox="0 0 16 16" fill="none" xmlns="http://www.w3.org/2000/svg">
<g clip-path="url(#clip0_6695_72357)">
<circle cx="8" cy="8" r="7.5" stroke="#AAAAAA"/>
<path fill-rule="evenodd" clip-rule="evenodd" d="M8.02016 9.16695C7.38657 9.16695 6.87329 8.65367 6.87329 8.02009V4.57948C6.87329 3.9459 7.38657 3.43262 8.02016 3.43262C8.65374 3.43262 9.16703 3.9459 9.16703 4.57948V8.02009C9.16703 8.65367 8.65374 9.16695 8.02016 9.16695ZM8.02016 10.3138C8.65374 10.3138 9.16703 10.8271 9.16703 11.4607C9.16703 12.0943 8.65374 12.6076 8.02016 12.6076C7.38657 12.6076 6.87329 12.0943 6.87329 11.4607C6.87329 10.8271 7.38657 10.3138 8.02016 10.3138Z" fill="#AAAAAA"/>
</g>
<defs>
<clipPath id="clip0_6695_72357">
<rect width="16" height="16" fill="white"/>
</clipPath>
</defs>
</svg>
