<svg width="95" height="102" viewBox="0 0 95 102" fill="none" xmlns="http://www.w3.org/2000/svg">
<path d="M49.5166 89.285C49.5166 89.285 43.3132 86.3892 36.7559 86.3892C29.3179 86.3892 24.1413 92.7097 30.0409 91.7444C35.9406 90.7792 37.5289 91.922 42.7632 91.922C47.9975 91.922 54.1586 91.3429 49.5205 89.285H49.5166Z" fill="#C7CDE8" stroke="#231F20" stroke-linecap="round" stroke-linejoin="round"/>
<path d="M53.301 89.285C53.301 89.285 59.5006 86.3892 66.0617 86.3892C73.4997 86.3892 78.6763 92.7097 72.7767 91.7444C66.8771 90.7792 65.2925 91.922 60.0583 91.922C54.824 91.922 48.6628 91.3429 53.301 89.285Z" fill="#C7CDE8" stroke="#231F20" stroke-linecap="round" stroke-linejoin="round"/>
<path d="M72.5229 65.0147C72.5229 82.7715 63.0697 91.922 51.4089 91.922C39.7481 91.922 30.2948 82.7715 30.2948 65.0147C30.2948 50.1536 39.7481 38.1073 51.4089 38.1073C63.0697 38.1073 72.5229 50.1536 72.5229 65.0147Z" fill="#C7CDE8" stroke="#231F20" stroke-linecap="round" stroke-linejoin="round"/>
<path d="M51.409 89.8333C43.1749 89.8333 37.5791 85.0804 36.4984 79.339C34.5293 68.8448 43.1749 70.868 51.409 70.868C59.6431 70.868 68.2887 68.8448 66.3196 79.339C65.2428 85.0804 59.6431 89.8333 51.409 89.8333Z" fill="white"/>
<path d="M51.4092 70.6016V89.8332" stroke="#C7CDE8" stroke-linecap="round" stroke-linejoin="round"/>
<path d="M60.7933 70.6016V88.1344" stroke="#C7CDE8" stroke-linecap="round" stroke-linejoin="round"/>
<path d="M42.025 70.6016V88.1344" stroke="#C7CDE8" stroke-linecap="round" stroke-linejoin="round"/>
<path d="M70.8887 63.9992C70.931 65.5706 71.1156 67.366 71.6386 68.8872C73.3578 73.9104 72.1078 77.2308 73.7539 77.3428C74.8923 77.42 82.1149 70.5629 73.1116 59.9374" fill="#C7CDE8"/>
<path d="M70.8887 63.9992C70.931 65.5706 71.1156 67.366 71.6386 68.8872C73.3578 73.9104 72.1078 77.2308 73.7539 77.3428C74.8923 77.42 82.1149 70.5629 73.1116 59.9374" stroke="#231F20" stroke-linecap="round" stroke-linejoin="round"/>
<path d="M27.8912 62.4548C27.5028 61.8988 24.8184 56.4239 24.8184 49.6324C24.8184 35.0648 36.7215 23.2578 51.409 23.2578C66.0965 23.2578 77.9996 35.0648 77.9996 49.6324C77.9996 56.4239 75.3113 61.8988 74.9229 62.4548" fill="#C7CDE8"/>
<path d="M27.8912 62.4548C27.5028 61.8988 24.8184 56.4239 24.8184 49.6324C24.8184 35.0648 36.7215 23.2578 51.409 23.2578C66.0965 23.2578 77.9996 35.0648 77.9996 49.6324C77.9996 56.4239 75.3113 61.8988 74.9229 62.4548" stroke="#231F20" stroke-linecap="round" stroke-linejoin="round"/>
<path d="M37.5294 54.7134C36.6526 54.7404 35.968 55.474 35.9949 56.3543C36.0218 57.2347 36.7526 57.9219 37.6294 57.8949C38.5063 57.8679 39.1947 57.1343 39.1639 56.254C39.137 55.3737 38.4063 54.6864 37.5294 54.7134Z" fill="black"/>
<path d="M65.1893 54.7134C64.3125 54.7404 63.6279 55.474 63.6548 56.3543C63.6817 57.2347 64.4125 57.9219 65.2893 57.8949C66.1662 57.8679 66.8546 57.1343 66.8239 56.254C66.7969 55.3737 66.0662 54.6864 65.1893 54.7134Z" fill="black"/>
<path d="M44.4563 63.8447C44.4563 63.8447 46.2677 66.1381 51.1136 66.1381C55.9594 66.1381 57.7747 63.8447 57.7747 63.8447C57.7747 63.8447 56.5132 62.3621 51.1136 62.3621C45.7139 62.3621 44.4563 63.8447 44.4563 63.8447Z" fill="#F598AA" stroke="#231F20" stroke-linecap="round" stroke-linejoin="round"/>
<path d="M38.9679 61.6826C38.9679 61.6826 39.6025 63.9992 43.1869 63.9992C45.9482 63.9992 46.9328 62.9258 51.1133 62.9258C55.2938 62.9258 56.2783 63.9992 59.0436 63.9992C62.6279 63.9992 63.2625 61.6826 63.2625 61.6826" fill="#C7CDE8"/>
<path d="M38.9679 61.6826C38.9679 61.6826 39.6025 63.9992 43.1869 63.9992C45.9482 63.9992 46.9328 62.9258 51.1133 62.9258C55.2938 62.9258 56.2783 63.9992 59.0436 63.9992C62.6279 63.9992 63.2625 61.6826 63.2625 61.6826" stroke="#231F20" stroke-linecap="round" stroke-linejoin="round"/>
<path d="M62.7083 25.9451C62.7083 27.366 51.409 29.3351 51.409 29.3351C51.409 29.3351 40.1097 27.4278 40.1097 25.9451C40.1097 24.4625 41.6481 15.532 41.6481 15.532H61.1661C61.1661 15.532 62.7045 24.5204 62.7045 25.9451H62.7083Z" fill="#414042" stroke="#231F20" stroke-linecap="round" stroke-linejoin="round"/>
<path d="M51.8014 12.7019L33.9064 16.7482L51.8014 20.7946L69.7003 16.7482L51.8014 12.7019Z" fill="#414042" stroke="#231F20" stroke-linecap="round" stroke-linejoin="round"/>
<path d="M33.9064 16.7482V20.7945" stroke="#231F20" stroke-linecap="round" stroke-linejoin="round"/>
<path d="M33.9067 20.7444C32.4991 20.7444 31.3607 23.7869 31.3607 27.5436C31.3607 27.5436 32.2222 28.1575 33.9067 28.1575C35.5912 28.1575 36.4566 27.5436 36.4566 27.5436C36.4566 23.7869 35.3143 20.7444 33.9067 20.7444Z" fill="#4D4D4D"/>
<path d="M31.3563 27.5436C31.3563 23.7869 32.4986 20.7444 33.9023 20.7444C35.3061 20.7444 36.4522 23.7869 36.4522 27.5436" stroke="#231F20" stroke-linecap="round" stroke-linejoin="round"/>
<path d="M32.3947 28.061C32.3947 24.0224 33.0715 20.7444 33.9023 20.7444C34.733 20.7444 35.4137 24.0224 35.4137 28.061" stroke="#231F20" stroke-linecap="round" stroke-linejoin="round"/>
<path d="M33.9062 20.7444V28.254" stroke="#231F20" stroke-linecap="round" stroke-linejoin="round"/>
<path d="M30.634 79.9105C30.5532 80.702 29.8494 81.2773 29.061 81.1962C28.2726 81.1152 27.6995 80.4086 27.7803 79.6171L28.8648 69.0765C28.9456 68.285 29.6494 67.7097 30.4378 67.7908C31.2262 67.8719 31.7993 68.5785 31.7185 69.37L30.634 79.9105Z" fill="#58595B" stroke="#231F20" stroke-linecap="round" stroke-linejoin="round"/>
<path d="M26.6301 67.2502C26.6301 67.2502 24.4187 70.7946 26.557 75.2772C28.6146 79.59 34.4258 75.7676 34.7757 74.1151C35.0219 72.9452 33.8643 72.2154 32.7259 71.7483C31.5952 71.2811 29.5145 70.9606 29.2107 70.1344" fill="#C7CDE8"/>
<path d="M26.6301 67.2502C26.6301 67.2502 24.4187 70.7946 26.557 75.2772C28.6146 79.59 34.4258 75.7676 34.7757 74.1151C35.0219 72.9452 33.8643 72.2154 32.7259 71.7483C31.5952 71.2811 29.5145 70.9606 29.2107 70.1344" stroke="#231F20" stroke-linecap="round" stroke-linejoin="round"/>
<path d="M46.4481 56.2078C46.4481 64.3699 39.8562 70.9916 31.726 70.9916C23.5957 70.9916 17 64.3738 17 56.2078C17 48.0417 23.5919 41.424 31.726 41.424C39.8601 41.424 46.4481 48.0417 46.4481 56.2078Z" fill="#BCBEC0" stroke="#231F20" stroke-linecap="round" stroke-linejoin="round"/>
<path d="M22.5879 47.119C22.5879 46.9143 22.5994 46.7097 22.6033 46.5089C20.0381 48.9413 18.4343 52.3854 18.4343 56.2116C18.4343 60.7367 20.6803 64.7329 24.1109 67.146C24.5993 65.814 25.2916 64.3931 26.2454 62.895C25.307 61.1344 22.5841 54.8371 22.5841 47.1228L22.5879 47.119Z" fill="#D6EEF0"/>
<path d="M27.4724 62.6363C27.5455 62.7405 27.5686 62.8602 27.5686 62.9799H27.607C27.5916 62.9992 27.5801 63.0185 27.5686 63.0378C27.5532 63.2039 27.4724 63.3622 27.3224 63.4703C27.307 63.4819 27.284 63.4857 27.2647 63.4934C26.284 65.0224 25.5995 66.4548 25.1303 67.7946C26.8301 68.7714 28.7685 69.3815 30.8337 69.5205C31.1491 68.1961 31.3337 66.6402 31.376 64.8757C31.3837 64.5513 31.6491 64.2965 31.9721 64.2965H31.9875C32.3144 64.3042 32.5759 64.5784 32.5682 64.9066C32.5221 66.644 32.3452 68.1923 32.0452 69.5436C36.1103 69.4432 39.7216 67.5166 42.0907 64.5436C40.5677 63.6131 40.1408 62.3081 40.1062 62.2C40.0639 62.0571 40.0716 61.9027 40.1447 61.7598C40.2908 61.4664 40.6485 61.3467 40.9408 61.4934C41.0869 61.5668 41.1985 61.7019 41.2446 61.8602C41.2638 61.922 41.5715 62.8911 42.7868 63.5861C44.1867 61.4741 45.0021 58.9374 45.0021 56.2116C45.0021 48.8409 39.0524 42.8679 31.7144 42.8679C28.7531 42.8679 26.0187 43.8409 23.8111 45.4857C23.7842 46.0262 23.7688 46.5745 23.7688 47.1228C23.7688 55.3042 27.0032 61.9799 27.4647 62.6401L27.4724 62.6363ZM38.9025 53.4046C39.987 53.3699 40.8908 54.2231 40.9254 55.312C40.96 56.3969 40.1101 57.3081 39.0255 57.3428C37.9448 57.3776 37.0372 56.5243 37.0026 55.4355C36.968 54.3506 37.8179 53.4394 38.9025 53.4046Z" fill="#AFBDE1"/>
<path d="M31.9914 64.2927H31.976C31.6568 64.2927 31.3915 64.5475 31.3799 64.8718C31.3338 66.6363 31.153 68.1884 30.8376 69.5166C31.1299 69.5359 31.4261 69.5475 31.7222 69.5475C31.8337 69.5475 31.9414 69.5436 32.0491 69.5398C32.3491 68.1884 32.526 66.6363 32.5722 64.9027C32.5798 64.5745 32.3222 64.3004 31.9914 64.2927Z" fill="black"/>
<path d="M27.2689 63.4934C27.2689 63.4934 27.3074 63.4818 27.3266 63.4703C27.4727 63.366 27.5535 63.2077 27.5727 63.0378C27.5843 63.0185 27.5958 62.9992 27.6112 62.9799H27.5727C27.5727 62.8602 27.5497 62.7405 27.4766 62.6363C27.0151 61.976 23.7807 55.3004 23.7807 47.1189C23.7807 46.5706 23.7961 46.0262 23.823 45.4818C23.3961 45.7984 22.9923 46.142 22.6077 46.505C22.6077 46.7096 22.5923 46.9104 22.5923 47.115C22.5923 54.8255 25.3152 61.1228 26.2536 62.8872C25.296 64.3892 24.6037 65.8062 24.1191 67.1382C24.4499 67.3699 24.7921 67.5861 25.1421 67.7907C25.6113 66.4509 26.2959 65.0185 27.2766 63.4896L27.2689 63.4934Z" fill="black"/>
<path d="M38.7486 57.7521C40.2216 57.7058 41.383 56.4703 41.333 54.9877C41.2869 53.5089 40.0562 52.3467 38.5832 52.3931C37.1102 52.4394 35.9526 53.6749 35.9988 55.1537C36.0449 56.6324 37.2756 57.7946 38.7486 57.7483V57.7521Z" fill="black"/>
<path d="M38.4141 54.2771C38.4141 54.6633 38.1026 54.976 37.718 54.976C37.3334 54.976 37.0181 54.6633 37.0181 54.2771C37.0181 53.891 37.3296 53.5783 37.718 53.5783C38.1065 53.5783 38.4141 53.891 38.4141 54.2771Z" fill="white"/>
<path d="M41.2561 61.8563C41.2099 61.698 41.0984 61.5629 40.9523 61.4895C40.66 61.3428 40.3023 61.4625 40.1562 61.7559C40.0831 61.8988 40.0754 62.0571 40.1177 62.1961C40.1523 62.308 40.5754 63.6092 42.1022 64.5397C42.3483 64.2308 42.5829 63.9104 42.8021 63.5783C41.583 62.8833 41.2753 61.9142 41.2599 61.8524L41.2561 61.8563Z" fill="black"/>
<path d="M45.0133 56.2078C45.0133 63.5746 39.0637 69.5514 31.7257 69.5514C24.3877 69.5514 18.4342 63.5785 18.4342 56.2078C18.4342 48.8371 24.3838 42.8641 31.7257 42.8641C39.0675 42.8641 45.0133 48.8371 45.0133 56.2078Z" stroke="#231F20" stroke-linecap="round" stroke-linejoin="round"/>
<path d="M21.6808 57.366C21.0423 57.366 20.527 56.8487 20.527 56.2077C20.527 50.007 25.5497 44.9645 31.7263 44.9645C32.3647 44.9645 32.88 45.4819 32.88 46.1228C32.88 46.7637 32.3647 47.2811 31.7263 47.2811C26.8227 47.2811 22.8345 51.285 22.8345 56.2077C22.8345 56.8487 22.3192 57.366 21.6808 57.366Z" fill="white"/>
<path d="M23.9418 60.6287C23.9418 61.2966 23.4034 61.8372 22.7381 61.8372C22.0727 61.8372 21.5343 61.2966 21.5343 60.6287C21.5343 59.9607 22.0727 59.4202 22.7381 59.4202C23.4034 59.4202 23.9418 59.9607 23.9418 60.6287Z" fill="white"/>
</svg>
