<svg width="95" height="102" viewBox="0 0 95 102" fill="none" xmlns="http://www.w3.org/2000/svg">
<g clip-path="url(#clip0_15125_129587)">
<path d="M56.854 20.4889C53.3885 20.4889 53.3925 24.6154 53.3925 24.6154V42.7757H56.7679V23.8487" fill="#FBD4DA"/>
<path d="M56.854 20.4889C53.3885 20.4889 53.3925 24.6154 53.3925 24.6154V42.7757H56.7679V23.8487" stroke="#222222" stroke-linecap="round" stroke-linejoin="round"/>
<path d="M52.5437 89.0743C52.5437 89.0743 46.2347 86.1408 39.5659 86.1408C32.0013 86.1408 26.7367 92.5437 32.7367 91.5658C38.7327 90.588 40.352 91.7458 45.6754 91.7458C50.9987 91.7458 57.2647 91.1591 52.5476 89.0743H52.5437Z" fill="#C7CDE8" stroke="#222222" stroke-linecap="round" stroke-linejoin="round"/>
<path d="M56.3964 89.0743C56.3964 89.0743 62.7014 86.1408 69.3742 86.1408C76.9387 86.1408 82.2034 92.5437 76.2034 91.5658C70.2034 90.588 68.5919 91.7458 63.2686 91.7458C57.9452 91.7458 51.6793 91.1591 56.3964 89.0743Z" fill="#C7CDE8" stroke="#222222" stroke-linecap="round" stroke-linejoin="round"/>
<path d="M75.9452 64.4876C75.9452 82.4759 66.3311 91.7458 54.4719 91.7458C42.6127 91.7458 32.9987 82.4759 32.9987 64.4876C32.9987 49.4329 42.6127 37.2295 54.4719 37.2295C66.3311 37.2295 75.9452 49.4329 75.9452 64.4876Z" fill="#C7CDE8" stroke="#222222" stroke-linecap="round" stroke-linejoin="round"/>
<path d="M54.4681 89.708C46.0939 89.708 40.4029 85.4094 39.3038 80.2191C37.3012 70.7301 46.0939 72.5606 54.4681 72.5606C62.8423 72.5606 71.635 70.7301 69.6323 80.2191C68.5372 85.4094 62.8423 89.708 54.4681 89.708Z" fill="white"/>
<path d="M54.4681 72.3181V89.7079" stroke="#C7CDE8" stroke-linecap="round" stroke-linejoin="round"/>
<path d="M64.0157 72.3181V88.1708" stroke="#C7CDE8" stroke-linecap="round" stroke-linejoin="round"/>
<path d="M44.9244 72.3181V88.1708" stroke="#C7CDE8" stroke-linecap="round" stroke-linejoin="round"/>
<path d="M74.3964 66.9205C74.2986 68.6806 74.326 70.7067 74.7171 72.4511C76.0118 78.2086 74.4433 81.8227 76.1018 82.0808C77.2165 82.2529 84.7263 75.5802 77.6819 63.6467C77.4707 63.2907 76.5437 62.3559 75.6324 62.2777" fill="#C7CDE8"/>
<path d="M74.3964 66.9205C74.2986 68.6806 74.326 70.7067 74.7171 72.4511C76.0118 78.2086 74.4433 81.8227 76.1018 82.0808C77.2165 82.2529 84.7263 75.5802 77.6819 63.6467C77.4707 63.2907 76.5437 62.3559 75.6324 62.2777" stroke="#222222" stroke-linecap="round" stroke-linejoin="round"/>
<path d="M31.1213 64.8397C31.1213 64.8397 30.7458 64.8553 29.4277 65.575C27.4172 66.6702 26.2947 66.6702 25.1447 66.9518C23.9557 67.2412 23.2086 67.5972 23.2204 69.0209C23.2243 69.7367 23.545 71.5359 24.9413 72.7992C27.3273 74.9544 31.4811 75.9049 36.5307 68.8331C36.5307 68.8331 38.279 65.2073 35.8305 63.5528C33.382 61.8983 31.1174 64.8436 31.1174 64.8436L31.1213 64.8397Z" fill="#C7CDE8"/>
<path d="M30.5541 65.0235C30.5541 65.0235 30.7458 64.8553 29.4277 65.575C27.4172 66.6701 26.2947 66.6701 25.1447 66.9518C23.9557 67.2412 23.2086 67.5971 23.2204 69.0209C23.2243 69.7366 23.545 71.5359 24.9413 72.7992C27.0965 74.7471 30.6949 75.7093 35.0913 70.6675" stroke="#222222" stroke-linecap="round" stroke-linejoin="round"/>
<path d="M54.4681 25.3156C39.5346 25.3156 27.425 37.2764 27.425 52.0339C27.425 58.914 30.1591 64.4603 30.5502 65.0235C30.5502 65.0235 43.0235 69.721 54.1669 69.721C65.3103 69.721 78.3781 65.0274 78.3781 65.0274C78.7732 64.4642 81.5072 58.9179 81.5072 52.0378C81.5072 37.2804 69.4016 25.3195 54.4642 25.3195L54.4681 25.3156Z" fill="#C7CDE8"/>
<path d="M30.554 65.0235C30.159 64.4603 27.4288 58.914 27.4288 52.0339C27.4288 37.2764 39.5344 25.3156 54.4719 25.3156C69.4093 25.3156 81.5149 37.2764 81.5149 52.0339C81.5149 58.914 78.7809 64.4603 78.3858 65.0235" stroke="#222222" stroke-linecap="round" stroke-linejoin="round"/>
<path d="M70.3247 62.3012C70.3521 61.9766 70.1135 61.6949 69.7927 61.6676L67.0392 61.4251C66.7184 61.3977 66.4329 61.6363 66.4055 61.957C66.4055 62.0039 66.4055 62.047 66.4094 62.0939C66.3899 63.1148 67.1565 63.9909 68.1891 64.0809C69.1982 64.1708 70.09 63.4707 70.2738 62.4928C70.3012 62.4342 70.3208 62.3716 70.3247 62.3012Z" fill="#222222"/>
<path d="M41.9009 61.425L39.1473 61.6675C38.8266 61.6949 38.5841 61.9804 38.6154 62.3011C38.6193 62.3481 38.631 62.3911 38.6428 62.4341C38.8031 63.4432 39.7067 64.1707 40.7392 64.0808C41.7484 63.9908 42.5033 63.1499 42.5189 62.1564C42.5346 62.0938 42.5424 62.0273 42.5385 61.9608C42.5111 61.6362 42.2256 61.3976 41.9048 61.4289L41.9009 61.425Z" fill="#222222"/>
<path d="M54.1708 68.2973C55.8879 68.2973 56.5176 68.6806 57.3429 68.6806C58.1682 68.6806 58.1408 67.8162 58.1174 67.558C58.0118 66.4863 55.6063 65.9465 54.1708 65.9465C52.7354 65.9465 50.3299 66.4863 50.2243 67.558C50.2008 67.8162 50.1734 68.6806 50.9987 68.6806C51.824 68.6806 52.4538 68.2973 54.1708 68.2973Z" fill="#B85E70" stroke="#222222" stroke-linecap="round" stroke-linejoin="round"/>
<path d="M57.605 66.8109C58.6141 67.5228 59.2517 67.7535 59.6037 67.6675L57.605 66.8109Z" fill="#B85E70"/>
<path d="M57.605 66.8109C58.6141 67.5228 59.2517 67.7535 59.6037 67.6675" stroke="#222222" stroke-linecap="round" stroke-linejoin="round"/>
<path d="M50.7366 66.8109C49.7275 67.5228 49.0899 67.7535 48.7379 67.6675L50.7366 66.8109Z" fill="#B85E70"/>
<path d="M50.7366 66.8109C49.7275 67.5228 49.0899 67.7535 48.7379 67.6675" stroke="#222222" stroke-linecap="round" stroke-linejoin="round"/>
<path d="M24.8472 56.8876L22.6267 57.728L30.6331 78.8829L32.8536 78.0425L24.8472 56.8876Z" fill="white" stroke="#222222" stroke-linecap="round" stroke-linejoin="round"/>
<path d="M26.0331 59.8886C17.2572 63.2201 7.44363 58.8093 4.11161 50.0348C0.779582 41.2602 5.191 31.4429 13.9669 28.1114C22.7428 24.7799 32.5564 29.1906 35.8884 37.9704C39.2204 46.745 34.809 56.557 26.0331 59.8886Z" fill="#F281A3" stroke="#222222" stroke-linecap="round" stroke-linejoin="round"/>
<path d="M26.1029 65.0625C24.7847 65.3519 23.5683 66.4549 23.2789 68.1446C22.9699 69.9517 23.936 71.5201 23.936 71.5201L25.1367 70.3819L26.6113 72.2515L28.1133 72.6622L27.6283 72.0247C27.6283 72.0247 26.9281 71.4223 27.6909 69.4823C28.3128 67.9021 29.1498 64.3976 26.1029 65.0625Z" fill="#C7CDE8"/>
<path d="M23.9322 71.5163C23.9322 71.5163 22.9661 69.9479 23.2751 68.1408C23.5645 66.4511 24.7809 65.3481 26.0991 65.0587C29.146 64.3938 28.309 67.8983 27.6871 69.4785C26.9244 71.4185 27.6245 72.0209 27.6245 72.0209L28.1095 72.6584" stroke="#222222" stroke-linecap="round" stroke-linejoin="round"/>
<path d="M62.2241 27.9869C63.1668 28.7262 64.4458 29.1877 65.7326 29.1877C68.1263 29.1877 69.7065 27.4315 69.7065 25.2685C69.7065 23.1056 68.1303 21.3494 65.7326 21.3494C64.2228 21.3494 62.185 22.1786 60.7417 23.4028C60.7417 23.4028 59.5566 20.5515 56.8578 20.4928L55.9347 23.9817C55.9347 23.9817 56.3845 23.3872 57.2254 24.1577C58.0234 24.8931 58.0859 26.1173 58.0859 26.1173C56.8617 27.5606 56.3024 29.2738 56.3024 30.7796C56.3024 33.1734 58.0586 34.7536 60.2215 34.7536C62.3845 34.7536 64.1407 33.1773 64.1407 30.7796C64.1407 30.1186 64.0194 29.4576 63.8004 28.8474" fill="#FBD4DA"/>
<path d="M55.9309 23.9778C55.9309 23.9778 56.3807 23.3833 57.2216 24.1538C58.0196 24.8892 58.0821 26.1134 58.0821 26.1134C56.8579 27.5567 56.2986 29.2699 56.2986 30.7757C56.2986 33.1695 58.0548 34.7496 60.2177 34.7496C62.3807 34.7496 64.1369 33.1734 64.1369 30.7757C64.1369 30.1147 64.0157 29.4537 63.7966 28.8435" stroke="#222222" stroke-linecap="round" stroke-linejoin="round"/>
<path d="M62.2242 27.9869C63.1669 28.7262 64.4459 29.1877 65.7327 29.1877C68.1265 29.1877 69.7066 27.4315 69.7066 25.2685C69.7066 23.1056 68.1304 21.3494 65.7327 21.3494C64.2229 21.3494 62.1851 22.1786 60.7418 23.4028C60.7418 23.4028 59.4824 20.5515 56.7836 20.4928" stroke="#222222" stroke-linecap="round" stroke-linejoin="round"/>
<path d="M20 37L20 45" stroke="white" stroke-width="4.5" stroke-linecap="round" stroke-linejoin="round"/>
<path d="M22.25 51.25C22.25 52.4926 21.2426 53.5 20 53.5C18.7574 53.5 17.75 52.4926 17.75 51.25C17.75 50.0074 18.7574 49 20 49C21.2426 49 22.25 50.0074 22.25 51.25Z" fill="white"/>
</g>
<path d="M39.9993 6.52536C39.9597 6.19589 39.7723 5.73262 39.5831 5.41919C38.8973 4.28411 37.8254 4.12738 36.9453 4.66216C36.0653 5.19693 35.7046 6.21423 36.394 7.35105C36.5832 7.66449 36.907 8.04767 37.1839 8.23522" fill="#E3F3F1"/>
<path d="M39.9993 6.52536C39.9597 6.19589 39.7723 5.73262 39.5831 5.41919C38.8973 4.28411 37.8254 4.12738 36.9453 4.66216C36.0653 5.19693 35.7046 6.21423 36.394 7.35105C36.5832 7.66449 36.907 8.04767 37.1839 8.23522" stroke="#84C2EA" stroke-linecap="round" stroke-linejoin="round"/>
<path d="M34.439 9.89065C34.3994 9.56117 34.2138 9.09432 34.0246 8.78088C33.3387 7.6458 32.2668 7.48907 31.3867 8.02385C30.5031 8.55689 30.146 9.57592 30.8354 10.7127C31.0246 11.0262 31.3484 11.4094 31.6253 11.5969" fill="#E3F3F1"/>
<path d="M34.439 9.89065C34.3994 9.56117 34.2138 9.09432 34.0246 8.78088C33.3387 7.6458 32.2668 7.48907 31.3867 8.02385C30.5031 8.55689 30.146 9.57592 30.8354 10.7127C31.0246 11.0262 31.3484 11.4094 31.6253 11.5969" stroke="#84C2EA" stroke-linecap="round" stroke-linejoin="round"/>
<path d="M28.8803 13.2524C28.8425 12.9194 28.6533 12.4597 28.4641 12.1462C27.7783 11.0112 26.7064 10.8544 25.8263 11.3892C24.9462 11.924 24.5856 12.9413 25.275 14.0781C25.4642 14.3915 25.788 14.7747 26.0648 14.9623" fill="#E3F3F1"/>
<path d="M28.8803 13.2524C28.8425 12.9194 28.6533 12.4597 28.4641 12.1462C27.7783 11.0112 26.7064 10.8544 25.8263 11.3892C24.9462 11.924 24.5856 12.9413 25.275 14.0781C25.4642 14.3915 25.788 14.7747 26.0648 14.9623" stroke="#84C2EA" stroke-linecap="round" stroke-linejoin="round"/>
<path d="M43.0173 11.5136C42.9777 11.1842 42.7903 10.7209 42.6011 10.4075C41.9153 9.27238 40.8433 9.11566 39.9633 9.65044C39.0832 10.1852 38.7225 11.2025 39.4119 12.3393C39.6011 12.6528 39.9249 13.0359 40.2018 13.2235" fill="#E3F3F1"/>
<path d="M43.0173 11.5136C42.9777 11.1842 42.7903 10.7209 42.6011 10.4075C41.9153 9.27238 40.8433 9.11566 39.9633 9.65044C39.0832 10.1852 38.7225 11.2025 39.4119 12.3393C39.6011 12.6528 39.9249 13.0359 40.2018 13.2235" stroke="#84C2EA" stroke-linecap="round" stroke-linejoin="round"/>
<path d="M37.4572 14.8791C37.4194 14.5461 37.2302 14.0864 37.041 13.7729C36.3552 12.6379 35.2868 12.4829 34.4032 13.0159C33.5196 13.549 33.1625 14.568 33.8483 15.7031C34.0375 16.0165 34.3613 16.3997 34.6346 16.5855" fill="#E3F3F1"/>
<path d="M37.4572 14.8791C37.4194 14.5461 37.2302 14.0864 37.041 13.7729C36.3552 12.6379 35.2868 12.4829 34.4032 13.0159C33.5196 13.549 33.1625 14.568 33.8483 15.7031C34.0375 16.0165 34.3613 16.3997 34.6346 16.5855" stroke="#84C2EA" stroke-linecap="round" stroke-linejoin="round"/>
<path d="M31.9023 18.2425C31.8644 17.9095 31.6753 17.4498 31.4861 17.1364C30.8003 16.0013 29.7283 15.8445 28.8483 16.3793C27.9682 16.9141 27.6075 17.9314 28.2969 19.0682C28.4861 19.3817 28.8099 19.7648 29.0868 19.9524" fill="#E3F3F1"/>
<path d="M31.9023 18.2425C31.8644 17.9095 31.6753 17.4498 31.4861 17.1364C30.8003 16.0013 29.7283 15.8445 28.8483 16.3793C27.9682 16.9141 27.6075 17.9314 28.2969 19.0682C28.4861 19.3817 28.8099 19.7648 29.0868 19.9524" stroke="#84C2EA" stroke-linecap="round" stroke-linejoin="round"/>
<path d="M46.0352 16.502C45.9956 16.1726 45.8082 15.7093 45.619 15.3959C44.9332 14.2608 43.8613 14.1041 42.9812 14.6388C42.1012 15.1736 41.7405 16.1909 42.4299 17.3277C42.6191 17.6412 42.9429 18.0243 43.2197 18.2119" fill="#E3F3F1"/>
<path d="M46.0352 16.502C45.9956 16.1726 45.8082 15.7093 45.619 15.3959C44.9332 14.2608 43.8613 14.1041 42.9812 14.6388C42.1012 15.1736 41.7405 16.1909 42.4299 17.3277C42.6191 17.6412 42.9429 18.0243 43.2197 18.2119" stroke="#84C2EA" stroke-linecap="round" stroke-linejoin="round"/>
<path d="M40.4767 19.8639C40.4389 19.5308 40.2498 19.0711 40.0606 18.7577C39.3747 17.6226 38.3028 17.4659 37.4227 18.0007C36.5427 18.5354 36.182 19.5527 36.8714 20.6896C37.0606 21.003 37.3844 21.3862 37.6577 21.572" fill="#E3F3F1"/>
<path d="M40.4767 19.8639C40.4389 19.5308 40.2498 19.0711 40.0606 18.7577C39.3747 17.6226 38.3028 17.4659 37.4227 18.0007C36.5427 18.5354 36.182 19.5527 36.8714 20.6896C37.0606 21.003 37.3844 21.3862 37.6577 21.572" stroke="#84C2EA" stroke-linecap="round" stroke-linejoin="round"/>
<path d="M34.9164 23.2291C34.8786 22.896 34.6895 22.4364 34.5003 22.1229C33.8144 20.9878 32.7425 20.8311 31.8624 21.3659C30.9824 21.9007 30.6217 22.918 31.3111 24.0548C31.5003 24.3682 31.8241 24.7514 32.101 24.939" fill="#E3F3F1"/>
<path d="M34.9164 23.2291C34.8786 22.896 34.6895 22.4364 34.5003 22.1229C33.8144 20.9878 32.7425 20.8311 31.8624 21.3659C30.9824 21.9007 30.6217 22.918 31.3111 24.0548C31.5003 24.3682 31.8241 24.7514 32.101 24.939" stroke="#84C2EA" stroke-linecap="round" stroke-linejoin="round"/>
<defs>
<clipPath id="clip0_15125_129587">
<rect width="81" height="74" fill="white" transform="translate(2 19)"/>
</clipPath>
</defs>
</svg>
