<svg width="75" height="75" viewBox="0 0 75 75" fill="none" xmlns="http://www.w3.org/2000/svg">
<path d="M37.7419 5.03253C38.0358 4.41075 38.4414 3.82628 38.934 3.32886C40.7264 1.53399 43.2225 1.66663 44.841 3.28741C46.4595 4.90818 46.5919 7.40773 44.7996 9.2026C43.6695 10.3342 41.5212 11.2379 39.526 11.4037V30.6498H35.9536V11.4078C33.9584 11.242 31.8101 10.3342 30.68 9.20675C28.8876 7.41188 29.0201 4.91647 30.6386 3.29155C32.2571 1.67078 34.7532 1.53813 36.5456 3.333C37.5101 4.29883 38.1227 5.60043 38.2717 6.86057" fill="#FADCE2"/>
<path d="M37.7419 5.03253C38.0358 4.41075 38.4414 3.82628 38.934 3.32886C40.7264 1.53399 43.2225 1.66663 44.841 3.28741C46.4595 4.90818 46.5919 7.40773 44.7996 9.2026C43.6695 10.3342 41.5212 11.2379 39.526 11.4037V30.6498H35.9536V11.4078C33.9584 11.242 31.8101 10.3342 30.68 9.20675C28.8876 7.41188 29.0201 4.91647 30.6386 3.29155C32.2571 1.67078 34.7532 1.53813 36.5456 3.333C37.5101 4.29883 38.1227 5.60043 38.2717 6.86057" stroke="#231815" stroke-linecap="round" stroke-linejoin="round"/>
<path d="M60.4421 60.943C64.151 56.1097 66.3615 50.066 66.3615 43.5C66.3615 27.6737 53.55 14.8401 37.7415 14.8401C21.9331 14.8401 9.12158 27.6737 9.12158 43.5C9.12158 50.066 11.332 56.1097 15.041 60.943C15.0906 62.9742 14.2268 62.9148 14.5 69L60.5332 68.9335C60.8106 62.8442 60.3883 62.9742 60.438 60.943H60.4421Z" fill="#D3D6EC"/>
<path d="M12.3793 56.856C10.3013 52.8849 9.12158 48.3625 9.12158 43.5665C9.12158 27.7401 21.9331 14.9066 37.7415 14.9066C53.55 14.9066 66.3615 27.736 66.3615 43.5665C66.3615 48.3708 65.1817 52.8973 63.0955 56.8767" stroke="#231815" stroke-linecap="round" stroke-linejoin="round"/>
<path d="M58.7074 58.6464C58.7529 60.3335 58.9516 62.261 59.5146 63.8943C61.3649 69.2872 60.0196 72.852 61.7913 72.9722C62.9213 73.0468 69.6065 66.8042 63.0745 56.9013" fill="#D2D5EC"/>
<path d="M58.7074 58.6464C58.7529 60.3335 58.9516 62.261 59.5146 63.8943C61.3649 69.2872 60.0196 72.852 61.7913 72.9722C62.9213 73.0468 69.6065 66.8042 63.0745 56.9013" stroke="#231815" stroke-linecap="round" stroke-linejoin="round"/>
<path d="M12.4045 56.9097C5.88076 66.8085 12.5618 73.047 13.6918 72.9724C15.4635 72.8563 14.1141 69.2873 15.9685 63.8944C16.5315 62.2612 16.7302 60.3337 16.7757 58.6466" fill="#D2D5EC"/>
<path d="M12.4045 56.9097C5.88076 66.8085 12.5618 73.047 13.6918 72.9724C15.4635 72.8563 14.1141 69.2873 15.9685 63.8944C16.5315 62.2612 16.7302 60.3337 16.7757 58.6466" stroke="#231815" stroke-linecap="round" stroke-linejoin="round"/>
<path d="M22.8025 48.6773C21.8587 48.7063 21.1219 49.4939 21.1509 50.439C21.1798 51.3841 21.9705 52.1219 22.9101 52.0929C23.8539 52.0639 24.5948 51.2763 24.5617 50.3312C24.5328 49.3861 23.7463 48.6483 22.8025 48.6773Z" fill="black"/>
<path d="M53.9887 48.6071C53.9887 48.6071 53.5168 48.2506 52.8627 48.4288C52.159 48.6195 51.5671 49.4485 51.5919 50.7626C51.5919 50.7626 52.6889 49.9916 53.8355 50.5677" stroke="#231815" stroke-linecap="round" stroke-linejoin="round"/>
<path d="M59.5234 53.4688C59.5234 54.0947 58.6127 54.6046 57.4868 54.6046C56.3609 54.6046 55.4502 54.0947 55.4502 53.4688C55.4502 52.8429 56.3609 52.333 57.4868 52.333C58.6127 52.333 59.5234 52.8429 59.5234 53.4688Z" fill="#E198AD"/>
<path d="M29.2064 58.1159C29.2064 58.1159 31.5286 62.6508 37.7378 62.6508C43.9469 62.6508 48.1153 58.1159 48.1153 58.1159C48.1153 58.1159 44.6547 57.0547 37.7378 57.0547C30.8208 57.0547 29.2064 58.1159 29.2064 58.1159Z" fill="#C05F70" stroke="#231815" stroke-linecap="round" stroke-linejoin="round"/>
<path d="M31.5992 60.7399C32.9611 61.7431 34.9605 62.6509 37.738 62.6509C40.5156 62.6509 42.6556 61.8135 44.6508 60.7399C44.6508 60.7399 43.2765 59.5751 37.738 59.5751C32.1995 59.5751 31.5992 60.7399 31.5992 60.7399Z" fill="#F19DAE" stroke="#231815" stroke-linecap="round" stroke-linejoin="round"/>
<path d="M25.2947 57.515C25.9653 58.0995 27.0746 58.6466 28.8918 58.6466C31.8639 58.6466 32.9278 57.4943 37.4232 57.4943C41.9186 57.4943 42.9824 58.6466 45.9587 58.6466C51.5013 58.6466 51.6504 54.775 51.6504 54.775" fill="#D2D5EC"/>
<path d="M25.2947 57.515C25.9653 58.0995 27.0746 58.6466 28.8918 58.6466C31.8639 58.6466 32.9278 57.4943 37.4232 57.4943C41.9186 57.4943 42.9824 58.6466 45.9587 58.6466C51.5013 58.6466 51.6504 54.775 51.6504 54.775" stroke="#231815" stroke-linecap="round" stroke-linejoin="round"/>
<path d="M50.6071 54.4514C50.6071 54.4514 51.9317 54.4514 52.5443 55.6784L50.6071 54.4514Z" fill="#D2D5EC"/>
<path d="M50.6071 54.4514C50.6071 54.4514 51.9317 54.4514 52.5443 55.6784" stroke="#231815" stroke-linecap="round" stroke-linejoin="round"/>
</svg>
