<svg width="70" height="70" viewBox="0 0 70 70" fill="none" xmlns="http://www.w3.org/2000/svg">
<circle cx="35" cy="35" r="30" stroke="#EEEEEE" stroke-width="10"/>
<path d="M13.7868 56.2132C8.16071 50.5871 5 42.9565 5 35C5 27.0435 8.1607 19.4129 13.7868 13.7868C19.4129 8.16071 27.0435 5 35 5C42.9565 5 50.5871 8.1607 56.2132 13.7868" stroke="#DDDDDD" stroke-width="10" stroke-linecap="round"/>
<g filter="url(#filter0_d_17563_232071)">
<circle cx="14" cy="14" r="14" fill="#DDEDFF"/>
</g>
<path d="M15.4863 17.5762H12.8398C12.8398 16.9967 12.8822 16.4922 12.9668 16.0625C13.0579 15.6263 13.2077 15.2357 13.416 14.8906C13.6243 14.5391 13.9043 14.2038 14.2559 13.8848C14.5618 13.6178 14.8288 13.3672 15.0566 13.1328C15.2845 12.8919 15.4603 12.6445 15.584 12.3906C15.7077 12.1367 15.7695 11.86 15.7695 11.5605C15.7695 11.2025 15.7142 10.9095 15.6035 10.6816C15.4993 10.4473 15.3431 10.2715 15.1348 10.1543C14.9329 10.0306 14.679 9.96875 14.373 9.96875C14.1191 9.96875 13.8815 10.0273 13.6602 10.1445C13.4388 10.2552 13.2598 10.431 13.123 10.6719C12.9863 10.9128 12.9115 11.2285 12.8984 11.6191H9.83203C9.85156 10.6882 10.0632 9.92643 10.4668 9.33398C10.8704 8.73503 11.4108 8.29557 12.0879 8.01562C12.7715 7.72917 13.5332 7.58594 14.373 7.58594C15.304 7.58594 16.1016 7.73242 16.7656 8.02539C17.4362 8.31836 17.9473 8.7513 18.2988 9.32422C18.6569 9.89714 18.8359 10.597 18.8359 11.4238C18.8359 11.9902 18.7285 12.4883 18.5137 12.918C18.2988 13.3411 18.0124 13.7383 17.6543 14.1094C17.2962 14.474 16.8991 14.8548 16.4629 15.252C16.0918 15.584 15.8379 15.929 15.7012 16.2871C15.5645 16.6387 15.4928 17.0684 15.4863 17.5762ZM12.4883 20.5645C12.4883 20.1283 12.6445 19.7604 12.957 19.4609C13.276 19.1615 13.6895 19.0117 14.1973 19.0117C14.7051 19.0117 15.1152 19.1615 15.4277 19.4609C15.7402 19.7604 15.8965 20.1283 15.8965 20.5645C15.8965 21.0072 15.7402 21.3783 15.4277 21.6777C15.1152 21.9707 14.7051 22.1172 14.1973 22.1172C13.6895 22.1172 13.276 21.9707 12.957 21.6777C12.6445 21.3783 12.4883 21.0072 12.4883 20.5645Z" fill="#74ACE8"/>
<defs>
<filter id="filter0_d_17563_232071" x="0" y="0" width="32" height="32" filterUnits="userSpaceOnUse" color-interpolation-filters="sRGB">
<feFlood flood-opacity="0" result="BackgroundImageFix"/>
<feColorMatrix in="SourceAlpha" type="matrix" values="0 0 0 0 0 0 0 0 0 0 0 0 0 0 0 0 0 0 127 0" result="hardAlpha"/>
<feMorphology radius="2" operator="erode" in="SourceAlpha" result="effect1_dropShadow_17563_232071"/>
<feOffset dx="3" dy="3"/>
<feGaussianBlur stdDeviation="1.5"/>
<feComposite in2="hardAlpha" operator="out"/>
<feColorMatrix type="matrix" values="0 0 0 0 0 0 0 0 0 0 0 0 0 0 0 0 0 0 0.15 0"/>
<feBlend mode="normal" in2="BackgroundImageFix" result="effect1_dropShadow_17563_232071"/>
<feBlend mode="normal" in="SourceGraphic" in2="effect1_dropShadow_17563_232071" result="shape"/>
</filter>
</defs>
</svg>
