<svg width="75" height="75" viewBox="0 0 75 75" fill="none" xmlns="http://www.w3.org/2000/svg">
<path d="M40.1409 10C36.4734 10 36.4775 14.3741 36.4775 14.3741V33.6241H40.0499V13.5614" fill="#FADCE2"/>
<path d="M40.1409 10C36.4734 10 36.4775 14.3741 36.4775 14.3741V33.6241H40.0499V13.5614" stroke="#231815" stroke-linecap="round" stroke-linejoin="round"/>
<path d="M60.3206 61.2283C64.0296 56.394 66.24 50.3491 66.24 43.7818C66.24 27.9523 53.4285 15.1162 37.62 15.1162C21.8115 15.1162 9 27.9523 9 43.7818C9 50.3491 11.2105 56.394 14.9194 61.2283C14.9691 63.2599 14.3109 62.9136 14.5882 69H60.6518C60.9291 62.9095 60.2668 63.2599 60.3165 61.2283H60.3206Z" fill="#D3D6EC"/>
<path d="M12.2577 57.074C10.1797 53.1021 9 48.5788 9 43.7818C9 27.9523 21.8115 15.1162 37.62 15.1162C53.4285 15.1162 66.24 27.9482 66.24 43.7818C66.24 48.5871 65.0603 53.1145 62.974 57.0947" stroke="#231815" stroke-linecap="round" stroke-linejoin="round"/>
<path d="M58.5862 58.865C58.6317 60.5525 58.8304 62.4804 59.3934 64.1139C61.2437 69.5079 59.8984 73.0735 61.6701 73.1937C62.8001 73.2683 69.4853 67.0244 62.9533 57.1196" fill="#D2D5EC"/>
<path d="M58.5862 58.865C58.6317 60.5525 58.8304 62.4804 59.3934 64.1139C61.2437 69.5079 59.8984 73.0735 61.6701 73.1937C62.8001 73.2683 69.4853 67.0244 62.9533 57.1196" stroke="#231815" stroke-linecap="round" stroke-linejoin="round"/>
<path d="M12.2824 57.1279C5.75455 67.0286 12.4397 73.2683 13.5698 73.1937C15.3415 73.0776 13.992 69.5079 15.8465 64.1139C16.4094 62.4804 16.6081 60.5525 16.6537 58.8651" fill="#D2D5EC"/>
<path d="M12.2824 57.1279C5.75455 67.0286 12.4397 73.2683 13.5698 73.1937C15.3415 73.0776 13.992 69.5079 15.8465 64.1139C16.4094 62.4804 16.6081 60.5525 16.6537 58.8651" stroke="#231815" stroke-linecap="round" stroke-linejoin="round"/>
<path d="M45.8242 17.9479C46.8218 18.7315 48.1754 19.2208 49.5372 19.2208C52.0706 19.2208 53.7429 17.3592 53.7429 15.0664C53.7429 12.7737 52.0706 10.9121 49.5372 10.9121C47.9394 10.9121 45.7828 11.7911 44.2553 13.0888C44.2553 13.0888 43.0011 10.0663 40.1449 10.0042L39.168 13.7024C39.168 13.7024 39.644 13.0722 40.534 13.889C41.3784 14.6684 41.4447 15.9661 41.4447 15.9661C40.149 17.496 39.5571 19.312 39.5571 20.9082C39.5571 23.4456 41.4157 25.1206 43.7048 25.1206C45.9939 25.1206 47.8525 23.4497 47.8525 20.9082C47.8525 20.2075 47.7242 19.5068 47.4924 18.8601" fill="#FADCE2"/>
<path d="M39.168 13.6983C39.168 13.6983 39.644 13.0681 40.534 13.8849C41.3784 14.6643 41.4447 15.962 41.4447 15.962C40.149 17.4919 39.5571 19.3079 39.5571 20.9041C39.5571 23.4414 41.4157 25.1164 43.7048 25.1164C45.9939 25.1164 47.8525 23.4456 47.8525 20.9041C47.8525 20.2034 47.7242 19.5027 47.4924 18.8559" stroke="#231815" stroke-linecap="round" stroke-linejoin="round"/>
<path d="M45.8241 17.9479C46.8217 18.7315 48.1753 19.2208 49.5372 19.2208C52.0705 19.2208 53.7428 17.3592 53.7428 15.0664C53.7428 12.7737 52.0705 10.9121 49.5372 10.9121C47.9394 10.9121 45.7827 11.7911 44.2553 13.0888C44.2553 13.0888 42.9224 10.0663 40.0662 10.0042" stroke="#231815" stroke-linecap="round" stroke-linejoin="round"/>
<path d="M54.397 52.6626C54.4259 52.3185 54.1734 52.02 53.834 51.9868L50.9199 51.7297C50.5763 51.7007 50.2782 51.9536 50.2493 52.2936C50.2493 52.3434 50.2493 52.389 50.2534 52.4387C50.2327 53.5208 51.044 54.4495 52.1368 54.5449C53.2048 54.6403 54.1486 53.8981 54.3432 52.8616C54.3721 52.7994 54.3928 52.7331 54.397 52.6585V52.6626Z" fill="black"/>
<path d="M24.3157 51.7339L21.4015 51.991C21.0621 52.02 20.8055 52.3227 20.8386 52.6668C20.8427 52.7166 20.8551 52.7622 20.8675 52.8078C21.0331 53.8774 21.9935 54.6486 23.0863 54.5532C24.1543 54.4579 24.9532 53.5665 24.9656 52.5093C24.9821 52.4429 24.9904 52.3724 24.9863 52.302C24.9573 51.962 24.6551 51.7049 24.3157 51.7381V51.7339Z" fill="black"/>
<path d="M37.3012 59.0143C39.1184 59.0143 39.7849 59.4206 40.6583 59.4206C41.5317 59.4206 41.5027 58.5043 41.4779 58.2307C41.3661 57.0947 38.8204 56.5225 37.3012 56.5225C35.7821 56.5225 33.2363 57.0947 33.1245 58.2307C33.0956 58.5002 33.0707 59.4206 33.9441 59.4206C34.8176 59.4206 35.484 59.0143 37.3054 59.0143H37.3012Z" fill="#C05F70" stroke="#231815" stroke-linecap="round" stroke-linejoin="round"/>
<path d="M40.9397 57.4388C42.0077 58.1934 42.6824 58.438 43.0591 58.3468L40.9397 57.4388Z" fill="#C05F70"/>
<path d="M40.9397 57.4388C42.0077 58.1934 42.6824 58.438 43.0591 58.3468" stroke="#231815" stroke-linecap="round" stroke-linejoin="round"/>
<path d="M33.6668 57.4388C32.5988 58.1934 31.9241 58.438 31.5515 58.3468L33.6668 57.4388Z" fill="#C05F70"/>
<path d="M33.6668 57.4388C32.5988 58.1934 31.9241 58.438 31.5515 58.3468" stroke="#231815" stroke-linecap="round" stroke-linejoin="round"/>
</svg>
