<svg width="135" height="120" viewBox="0 0 135 120" fill="none" xmlns="http://www.w3.org/2000/svg">
<g opacity="0.75" filter="url(#filter0_d_2590_22651)">
<path d="M112.614 33.9595C113.062 17.0077 93.3233 2.67284 68.5252 1.94168C43.7272 1.21053 23.2608 14.3599 22.8122 31.3117C22.3636 48.2635 42.1028 62.5983 66.9008 63.3295C91.6988 64.0606 112.165 50.9112 112.614 33.9595Z" fill="#FFA617"/>
</g>
<path d="M52.437 35.0512C53.8038 36.0357 57.8394 35.1779 61.4595 33.1309" stroke="white" stroke-width="1.7" stroke-miterlimit="10"/>
<path d="M66.3999 36.689C62.7798 38.7263 58.7442 39.5938 57.3774 38.6093" stroke="white" stroke-width="1.7" stroke-miterlimit="10"/>
<path d="M60.5825 24.1044L64.2949 26.7655" stroke="white" stroke-width="1.7" stroke-miterlimit="10"/>
<path d="M69.2261 35.7142C70.5928 36.6987 74.6285 35.8409 78.2485 33.7939C81.8686 31.7468 83.6878 29.3001 82.3211 28.3156" stroke="white" stroke-width="1.7" stroke-miterlimit="10"/>
<path d="M64.2764 32.1659C65.6431 33.1504 69.6788 32.2926 73.2988 30.2455C76.9189 28.1985 78.7381 25.7517 77.3714 24.7672" stroke="white" stroke-width="1.7" stroke-miterlimit="10"/>
<path d="M69.1429 26.2391C65.5321 28.2764 62.9094 31.1813 64.2761 32.1659" stroke="white" stroke-width="1.7" stroke-miterlimit="10"/>
<path d="M64.2764 32.1659L74.1761 39.2721C75.5429 40.2566 79.5785 39.3988 83.1986 37.3518" stroke="white" stroke-width="1.7" stroke-miterlimit="10"/>
<path d="M69.1431 26.2392C72.7539 24.2019 76.0046 23.7925 77.3621 24.7673" stroke="white" stroke-width="1.7" stroke-miterlimit="10"/>
<path d="M77.3711 24.7672L87.2709 31.8734C88.6376 32.858 86.8183 35.3047 83.1983 37.3517" stroke="white" stroke-width="1.7" stroke-miterlimit="10"/>
<path d="M71.3501 40.2471C67.73 42.2844 63.6944 43.1519 62.3276 42.1674" stroke="white" stroke-width="1.7" stroke-miterlimit="10"/>
<path d="M55.0948 30.3161C58.9166 28.5233 61.5413 25.9454 60.9572 24.558C60.3731 23.1706 56.8014 23.4993 52.9796 25.292C49.1578 27.0848 46.5331 29.6628 47.1171 31.0501C47.7012 32.4375 51.2729 32.1088 55.0948 30.3161Z" stroke="white" stroke-width="1.7" stroke-miterlimit="10"/>
<path d="M47.4873 31.5029L62.3277 42.1671" stroke="white" stroke-width="1.7" stroke-miterlimit="10"/>
<defs>
<filter id="filter0_d_2590_22651" x="0.804688" y="1.9126" width="133.816" height="117.446" filterUnits="userSpaceOnUse" color-interpolation-filters="sRGB">
<feFlood flood-opacity="0" result="BackgroundImageFix"/>
<feColorMatrix in="SourceAlpha" type="matrix" values="0 0 0 0 0 0 0 0 0 0 0 0 0 0 0 0 0 0 127 0" result="hardAlpha"/>
<feOffset dy="34"/>
<feGaussianBlur stdDeviation="11"/>
<feComposite in2="hardAlpha" operator="out"/>
<feColorMatrix type="matrix" values="0 0 0 0 0 0 0 0 0 0 0 0 0 0 0 0 0 0 0.1 0"/>
<feBlend mode="normal" in2="BackgroundImageFix" result="effect1_dropShadow_2590_22651"/>
<feBlend mode="normal" in="SourceGraphic" in2="effect1_dropShadow_2590_22651" result="shape"/>
</filter>
</defs>
</svg>
