<svg width="135" height="120" viewBox="0 0 135 120" fill="none" xmlns="http://www.w3.org/2000/svg">
<g opacity="0.75" filter="url(#filter0_d_2590_22644)">
<path d="M112.03 34.1347C112.478 17.183 92.7393 2.84813 67.9413 2.11698C43.1433 1.38582 22.6768 14.5352 22.2282 31.487C21.7797 48.4388 41.5188 62.7736 66.3168 63.5048C91.1148 64.2359 111.581 51.0865 112.03 34.1347Z" fill="#1BE780"/>
</g>
<path d="M71.7702 27.113C72.0133 27.113 72.2077 27.113 72.2077 27.113C72.2077 27.113 72.0133 27.113 71.7217 27.113C71.43 27.113 71.2842 27.113 71.2842 27.113C71.2842 27.113 71.4786 27.113 71.7702 27.113Z" stroke="white" stroke-width="1.7" stroke-linecap="round" stroke-linejoin="round"/>
<path d="M61.9945 24.4323C61.6989 23.8475 61.228 23.2918 60.5446 22.7947C58.0419 20.9913 53.8585 20.7476 51.1989 22.2488C48.5485 23.75 48.4285 26.4209 50.9311 28.2243C51.7345 28.8091 52.7319 29.2088 53.7754 29.4525" stroke="white" stroke-width="1.7" stroke-linecap="round" stroke-linejoin="round"/>
<path d="M48.9269 36.8413C48.6406 37.4554 48.853 38.1768 49.6103 38.7129C50.7369 39.522 52.6208 39.639 53.8213 38.9566L55.0865 38.245" stroke="white" stroke-width="1.7" stroke-linecap="round" stroke-linejoin="round"/>
<path d="M65.9929 20.5527L69.3082 22.9312C71.1367 22.98 72.9652 23.2919 74.6275 23.8865L75.828 23.2139C76.5853 22.785 77.7858 22.8532 78.4969 23.3699L82.4679 26.226C83.1789 26.7426 83.1512 27.503 82.394 27.9319L80.5932 28.9457C81.0457 30.2031 80.9903 31.4899 80.427 32.6791L82.7726 34.3655C83.4837 34.8821 83.456 35.6425 82.6987 36.0714L79.956 37.6213C79.1987 38.0502 77.9982 37.982 77.2871 37.4653L75.9942 36.5295L71.1921 39.2394L72.3188 40.0485C73.0298 40.5652 73.0021 41.3255 72.2449 41.7544L69.5021 43.3043C68.7449 43.7332 67.5443 43.665 66.8333 43.1483L63.7119 40.9063C60.609 40.8283 57.4784 39.951 55.1789 38.3036C50.8847 35.2136 51.0879 30.632 55.6314 28.0683L61.8464 24.5591C62.4375 24.2277 62.8253 23.7695 62.9546 23.2626C63.1486 22.5315 63.7026 21.8394 64.6261 21.3228L66.0021 20.543L65.9929 20.5527Z" stroke="white" stroke-width="1.7" stroke-linecap="round" stroke-linejoin="round"/>
<defs>
<filter id="filter0_d_2590_22644" x="0.220703" y="2.08789" width="133.816" height="117.446" filterUnits="userSpaceOnUse" color-interpolation-filters="sRGB">
<feFlood flood-opacity="0" result="BackgroundImageFix"/>
<feColorMatrix in="SourceAlpha" type="matrix" values="0 0 0 0 0 0 0 0 0 0 0 0 0 0 0 0 0 0 127 0" result="hardAlpha"/>
<feOffset dy="34"/>
<feGaussianBlur stdDeviation="11"/>
<feComposite in2="hardAlpha" operator="out"/>
<feColorMatrix type="matrix" values="0 0 0 0 0 0 0 0 0 0 0 0 0 0 0 0 0 0 0.1 0"/>
<feBlend mode="normal" in2="BackgroundImageFix" result="effect1_dropShadow_2590_22644"/>
<feBlend mode="normal" in="SourceGraphic" in2="effect1_dropShadow_2590_22644" result="shape"/>
</filter>
</defs>
</svg>
