<svg width="45" height="10" viewBox="0 0 45 10" fill="none" xmlns="http://www.w3.org/2000/svg">
<path d="M11.6993 9.45132C11.2219 9.41551 10.7371 9.42048 10.2701 9.33044C9.89965 9.2588 9.78228 8.97474 9.91698 8.60362C10.1532 7.9544 10.4335 7.32111 10.6608 6.66891C10.8223 6.20576 10.9753 5.72917 11.0416 5.24562C11.1179 4.69242 10.8951 4.50487 10.3736 4.64914C9.72087 4.82972 9.22614 5.26701 8.81907 5.77842C8.17725 6.58434 7.62507 7.45045 7.28238 8.43796C7.16253 8.78271 7.04715 9.1011 7.43293 9.37422C7.41857 9.40009 7.4047 9.42595 7.39034 9.45132C6.91442 9.416 6.43207 9.4175 5.96508 9.33392C5.62733 9.27323 5.59267 9.14985 5.55206 8.64192C5.33069 8.7837 5.12418 8.94588 4.89341 9.05782C3.22053 9.8717 1.27677 9.60455 0.05059 7.90117C0.000572115 7.83202 -0.0162656 7.69273 0.017905 7.61562C0.315041 6.93805 0.627528 6.26695 0.93655 5.59435C0.944968 5.57594 0.968244 5.564 0.977653 5.55605C1.0247 5.88836 1.05342 6.22317 1.12226 6.54902C1.32184 7.49573 2.08894 8.15937 3.04077 8.28772C4.57498 8.49467 5.62882 7.75193 6.38998 6.53608C6.80151 5.87941 7.07636 5.13468 7.39578 4.42179C7.80336 3.51239 8.19211 2.59404 8.59324 1.68166C8.74082 1.34636 8.82055 1.022 8.49123 0.699134C8.5868 0.686697 8.64623 0.672767 8.70516 0.67227C9.05974 0.669285 9.41482 0.669285 9.7694 0.66829C10.2948 0.666798 10.4697 0.922503 10.2651 1.417C10.0363 1.97119 9.79466 2.52041 9.55893 3.07162C9.40739 3.42583 9.25635 3.78004 9.08451 4.18101C9.40046 4.01186 9.67284 3.85366 9.9561 3.71785C10.5633 3.42682 11.1927 3.23878 11.8801 3.30444C12.3961 3.35369 12.7309 3.69895 12.7566 4.22528C12.7933 4.97598 12.5541 5.67096 12.3302 6.36694C12.0989 7.0858 11.8558 7.80118 11.6008 8.51158C11.4868 8.82848 11.4556 9.11602 11.7241 9.37869C11.7161 9.40307 11.7077 9.42794 11.6998 9.45232L11.6993 9.45132Z" fill="#61BEC1"/>
<path d="M7.14617 2.2937C6.87925 1.60071 6.22307 1.22909 5.51341 1.34003C5.08702 1.40669 4.68143 1.5231 4.35161 1.83005C3.8242 2.32056 3.79597 2.85884 4.31645 3.34637C4.63439 3.64386 4.99838 3.89061 5.33365 4.1702C6.34391 5.01343 6.51228 6.44618 5.30195 7.3899C5.00927 7.61775 4.68936 7.81077 4.38232 8.01971C4.36944 8.00081 4.35607 7.9824 4.34319 7.96349C4.39024 7.90927 4.43729 7.85455 4.48483 7.80082C5.00828 7.20782 5.03502 6.47254 4.48483 5.91039C4.09558 5.5129 3.65037 5.16267 3.19774 4.83732C2.19441 4.11647 1.88489 2.87575 2.51234 1.8977C2.91249 1.27137 3.50032 0.876872 4.20304 0.67987C5.26679 0.381381 6.31915 0.46048 7.34525 0.871897C7.42102 0.902244 7.49135 0.947017 7.56464 0.983831C7.69835 1.05149 7.73648 1.13705 7.65824 1.28282C7.48441 1.60568 7.32545 1.938 7.14617 2.2937Z" fill="#61BEC1"/>
<path d="M31.2633 3.89865C31.2633 5.31375 31.264 6.62169 31.2633 7.92964C31.2633 8.58434 30.9784 8.87206 30.3333 8.87573C30.1015 8.8772 29.8698 8.87573 29.5561 8.87573C29.5561 8.47498 29.5561 8.10065 29.5561 7.72559C29.5561 5.79304 29.5598 3.86122 29.5539 1.92866C29.5532 1.68205 29.5 1.43543 29.4602 1.10001C29.9406 1.12643 30.4507 1.12863 30.9503 1.19909C31.0935 1.21891 31.2316 1.42075 31.3327 1.56681C32.3254 3.00467 33.3085 4.44913 34.2961 5.89066C34.3573 5.9802 34.4289 6.06241 34.5153 6.17324V1.10221C34.9611 1.12496 35.4711 1.12349 35.9708 1.19542C36.0933 1.21304 36.2682 1.47213 36.2697 1.62186C36.2889 3.77387 36.2882 5.92662 36.2786 8.07937C36.2764 8.56746 35.9427 8.82875 35.4586 8.88674C34.8644 8.9572 34.5064 8.74802 34.1839 8.2357C33.3189 6.86097 32.3874 5.52734 31.481 4.17756C31.4353 4.1093 31.3806 4.04691 31.2648 3.89865H31.2633Z" fill="#61BEC1"/>
<path d="M20.1973 4.60151C20.5752 4.91849 20.9612 5.15733 21.2357 5.48758C21.9021 6.2896 21.6767 8.22021 20.0307 8.66177C19.5369 8.79446 19.0147 8.86891 18.503 8.88439C17.4008 8.91682 16.297 8.8866 15.194 8.89913C14.9336 8.90208 14.8526 8.82394 14.8541 8.56594C14.8667 6.29329 14.8704 4.02064 14.8675 1.74798C14.8675 1.5578 14.8035 1.36687 14.7603 1.13098C14.8451 1.1214 14.9478 1.09929 15.0504 1.10002C16.2769 1.11034 17.5056 1.08528 18.7284 1.15679C19.2126 1.18553 19.7303 1.35213 20.1505 1.59613C21.1338 2.16743 21.2334 3.5002 20.4175 4.40027C20.3439 4.48136 20.2554 4.54844 20.1973 4.60151ZM16.5811 7.84721C17.191 7.84721 17.7808 7.84795 18.3706 7.84647C18.4815 7.84647 18.5938 7.84279 18.7024 7.82436C19.1754 7.74548 19.6284 7.62975 19.8069 7.10637C20.0486 6.39649 19.8039 5.85984 19.0824 5.58193C18.2791 5.27306 17.4387 5.36005 16.5811 5.37037V7.84721ZM16.5893 2.18659V4.30665C17.1293 4.30665 17.638 4.3295 18.1438 4.30002C18.6005 4.27274 19.0423 4.15037 19.2037 3.64837C19.435 2.93038 19.0341 2.27431 18.2777 2.19765C17.728 2.14163 17.1679 2.18659 16.5893 2.18659Z" fill="#61BEC1"/>
<path d="M39.7011 5.45703C39.4096 5.74642 39.1161 6.02116 38.8453 6.32081C38.7827 6.38968 38.7867 6.54647 38.7854 6.66369C38.7787 7.12745 38.7841 7.59121 38.7814 8.05498C38.7781 8.52094 38.5232 8.84989 38.1086 8.88799C37.8458 8.91217 37.5796 8.89239 37.2848 8.89239C37.2741 8.72168 37.2568 8.57955 37.2568 8.43668C37.2562 6.31275 37.2602 4.18882 37.2555 2.06563C37.2555 1.76891 37.2136 1.47219 37.185 1.10001C37.5909 1.12638 38.0254 1.14177 38.4573 1.18939C38.6869 1.2143 38.7867 1.385 38.7841 1.65022C38.7754 2.49129 38.7807 3.33163 38.7807 4.24817C38.8959 4.1434 38.9717 4.08552 39.0356 4.01519C39.8069 3.1558 40.5795 2.29861 41.3428 1.43189C41.5411 1.20624 41.752 1.09121 42.0455 1.11026C42.4282 1.13517 42.8128 1.11612 43.3012 1.11612C42.3709 2.20923 41.5058 3.2254 40.6294 4.25403C41.7467 5.78745 42.8521 7.30329 44.01 8.89239C43.3858 8.89239 42.8387 8.91217 42.2944 8.87627C42.1793 8.86894 42.0635 8.66966 41.9683 8.54072C41.2356 7.54725 40.5076 6.54866 39.7776 5.55227C39.7437 5.50611 39.7051 5.46362 39.6997 5.45703H39.7011Z" fill="#61BEC1"/>
<path d="M23.9881 1.10381C24.5289 1.10381 25.0981 1.09354 25.6674 1.10675C26.1863 1.11923 26.5212 1.39888 26.6964 1.88626C27.1875 3.25663 27.6823 4.62554 28.1727 5.99665C28.4588 6.79671 28.7383 7.59897 29.0178 8.40123C29.0682 8.54656 29.104 8.69777 29.1602 8.89521C28.6041 8.89521 28.0947 8.91283 27.5882 8.88053C27.4867 8.87393 27.3576 8.69263 27.3101 8.56565C27.0934 7.98652 26.8949 7.40006 26.7037 6.81139C26.6373 6.6066 26.53 6.53394 26.3125 6.53907C25.6448 6.55375 24.9755 6.56036 24.3078 6.53761C24.0195 6.52807 23.8947 6.65064 23.8174 6.90094C23.6736 7.36409 23.5225 7.82578 23.362 8.28306C23.1905 8.77117 23.0146 8.88714 22.4979 8.88714C22.1695 8.88714 21.8418 8.8864 21.5134 8.88347C21.4784 8.88347 21.4433 8.86879 21.3602 8.85044C21.5733 8.24048 21.7812 7.63714 21.9943 7.03599C22.5971 5.33311 23.2058 3.63171 23.8028 1.92589C23.8889 1.68 23.9203 1.41576 23.9896 1.10381H23.9881ZM26.2315 5.49019C25.9111 4.57783 25.6105 3.72052 25.274 2.76265C24.9354 3.72712 24.6311 4.59398 24.3173 5.49019H26.2315Z" fill="#61BEC1"/>
</svg>
