<svg  viewBox="0 0 273 136" fill="none" xmlns="http://www.w3.org/2000/svg">
<path d="M268.284 136C270.595 136 272.475 134.126 272.404 131.816C271.899 115.383 268.417 99.1656 262.116 83.955C255.282 67.4547 245.264 52.4622 232.635 39.8335C220.007 27.2047 205.014 17.187 188.514 10.3524C172.013 3.51773 154.329 -1.42315e-05 136.469 -1.18895e-05C118.609 -9.54747e-06 100.924 3.51774 84.4238 10.3524C67.9235 17.187 52.931 27.2047 40.3022 39.8335C27.6734 52.4623 17.6558 67.4548 10.8211 83.9551C4.52067 99.1657 1.03889 115.383 0.533111 131.816C0.462013 134.126 2.34225 136 4.65335 136L24.8441 136C27.1552 136 29.0202 134.126 29.1102 131.816C29.6044 119.135 32.342 106.63 37.2071 94.8845C42.6065 81.8493 50.5204 70.0052 60.4972 60.0284C70.4739 50.0517 82.318 42.1377 95.3532 36.7384C108.388 31.339 122.36 28.56 136.469 28.56C150.578 28.56 164.549 31.339 177.584 36.7384C190.619 42.1377 202.464 50.0517 212.44 60.0284C222.417 70.0052 230.331 81.8492 235.73 94.8845C240.595 106.63 243.333 119.135 243.827 131.816C243.917 134.126 245.782 136 248.093 136L268.284 136Z" fill="#FFE5E5"/>
<path d="M235 134C235 107.744 224.57 82.5625 206.004 63.9964C187.437 45.4303 162.256 35 136 35C109.744 35 84.5625 45.4303 65.9964 63.9964C47.4303 82.5625 37 107.744 37 134" stroke="#FFE5E5" stroke-linecap="round" stroke-dasharray="5.87 5.87"/>
</svg>
