<svg width="73" height="69" viewBox="0 0 73 69" fill="none" xmlns="http://www.w3.org/2000/svg">
<path d="M5.83334 5C5.83334 2.51472 7.84806 0.5 10.3333 0.5H53.6667C56.152 0.5 58.1667 2.51472 58.1667 5V33.6453H5.83334V5Z" fill="white" stroke="#E7E9EE"/>
<path d="M1.59127 55.6389C1.07668 58.4063 3.20057 60.9615 6.01544 60.9615H57.9846C60.7994 60.9615 62.9233 58.4063 62.4087 55.6389L58.2511 33.2795H5.74893L1.59127 55.6389Z" fill="white" stroke="#E7E9EE"/>
<path d="M12.7795 43.0355H21.6283" stroke="#E7E9EE" stroke-linecap="round"/>
<path d="M11.4462 49.4175H29.1438" stroke="#E7E9EE" stroke-linecap="round"/>
<path d="M43.5347 44.0197V40.2582C46.7076 40.2582 48.9245 41.7628 49.6364 42.5151C66.5455 38.3543 72 49.115 72 54.7096C72 60.3042 66.7119 64.7401 64.3729 68H59.7966V63.9878C55.4034 64.7902 51.8644 64.3222 50.6441 63.9878V68H45.7627C42.3458 64.5896 39.661 59.7248 38.7458 57.7187H36V51.7004H38.4407C39.4169 47.6882 39.8182 47.196 43.5347 44.0197Z" fill="white" stroke="#E7E9EE"/>
<ellipse cx="46.2787" cy="50.7516" rx="1.55141" ry="1.47519" fill="#E7E9EE"/>
<ellipse cx="32" cy="23.5385" rx="14.6667" ry="14.3846" fill="#E7E9EE"/>
<path d="M24.4 19.6154L28.4 28.5824L32 19.6154L35.6 28.5824L39.6 19.6154" stroke="white" stroke-linecap="round" stroke-linejoin="round"/>
<path d="M24 24.5065H40" stroke="white" stroke-linecap="round" stroke-linejoin="round"/>
</svg>
