<svg width="17" height="16" viewBox="0 0 17 16" fill="none" xmlns="http://www.w3.org/2000/svg">
<path d="M9.04962 8L6.66794 5.20179C6.55598 5.07025 6.5 4.90284 6.5 4.69955C6.5 4.49626 6.55598 4.32885 6.66794 4.19731C6.7799 4.06577 6.92239 4 7.09542 4C7.26845 4 7.41094 4.06577 7.5229 4.19731L10.3321 7.49776C10.3931 7.56951 10.4364 7.64723 10.4618 7.73094C10.4873 7.81465 10.5 7.90434 10.5 8C10.5 8.09567 10.4873 8.18535 10.4618 8.26906C10.4364 8.35277 10.3931 8.43049 10.3321 8.50224L7.5229 11.8027C7.41094 11.9342 7.26845 12 7.09542 12C6.92239 12 6.7799 11.9342 6.66794 11.8027C6.55598 11.6712 6.5 11.5037 6.5 11.3004C6.5 11.0972 6.55598 10.9297 6.66794 10.7982L9.04962 8Z" fill="#434655"/>
</svg>
