<svg width="140" height="40" viewBox="0 0 140 40" fill="none" xmlns="http://www.w3.org/2000/svg">
<g clip-path="url(#clip0_2965_210299)">
<path d="M33.4521 16.452L18.6455 0.627946C18.2768 0.230251 17.7853 0.0209313 17.2528 0C16.7204 0 16.2084 0.209311 15.8398 0.586075L0.582528 16.0543C0.00910201 16.6195 -0.154734 17.4986 0.152459 18.2521C0.459651 19.0057 1.15595 19.508 1.95466 19.508L11.5186 19.6127L11.5595 15.5729L6.7059 15.5101L17.1914 4.877L27.3697 15.7404L22.4956 15.6776L22.3318 29.9946C23.8268 28.5503 25.1989 26.9805 26.3253 25.306L26.3867 19.7801L32.0186 19.8429C32.8173 19.8429 33.5341 19.3824 33.8412 18.6289C34.1484 17.8754 34.0051 17.0172 33.4521 16.4311V16.452Z" fill="#023F97"/>
<path d="M15.0615 35.855C16.3927 34.9968 17.7239 34.0549 19.0141 33.0293V20.2402H15.0615V35.8341V35.855Z" fill="#023F97"/>
<path d="M7.62793 24.8452L7.68937 39.9994C8.89766 39.4134 10.2288 38.7226 11.6214 37.9272L11.5805 24.8242H7.62793V24.8452Z" fill="#023F97"/>
<path d="M76.1029 19.8388H67.4709C65.6829 19.8388 64.2031 18.3905 64.2031 16.5954V6.64062H67.0393V16.5954C67.0393 16.8401 67.2243 17.0237 67.4709 17.0237H76.1029V19.8388Z" fill="#023F97"/>
<path d="M60.6268 6.7836C60.0514 6.57961 59.4142 6.7836 59.0443 7.27318L55.6326 11.761V6.72241H44V16.5955C44 18.3703 45.4592 19.839 47.2678 19.839H55.6532V16.4528L58.7771 12.3322V19.839H61.6133V8.12993C61.6133 7.51796 61.2228 6.9876 60.6474 6.80401L60.6268 6.7836ZM52.8169 17.0239H47.2678C47.0212 17.0239 46.8362 16.8403 46.8362 16.5955V9.53747H52.8169V17.0443V17.0239Z" fill="#023F97"/>
<path d="M114.781 20.0836H106.211C104.423 20.0836 102.943 18.6353 102.943 16.8402V11.6384H111.719V9.45569H103.046V6.64062H114.535V14.4331H105.759V16.8198C105.759 17.0645 105.944 17.2481 106.191 17.2481H114.761V20.0632L114.781 20.0836Z" fill="#023F97"/>
<path d="M119.961 6.68164H117.125V20.1042H119.961V6.68164Z" fill="#023F97"/>
<path d="M80.5003 6.64062H77.6641V19.8388H80.5003V6.64062Z" fill="#023F97"/>
<path d="M140 6.68164H137.164V20.1042H140V6.68164Z" fill="#023F97"/>
<path d="M94.7854 19.8371V6.67969H91.9492V10.4943H85.763V6.67969H82.9268V16.5936C82.9268 18.3684 84.386 19.8371 86.1946 19.8371H94.7854ZM85.763 16.5936V13.289H91.9492V17.022H86.1946C85.9479 17.022 85.763 16.8384 85.763 16.5936Z" fill="#023F97"/>
<path d="M88.0227 30.5466C87.8994 30.5466 87.7966 30.4446 87.7966 30.3222V28.6699H100.662V6.67969H97.8261V21.4282H84.7549V24.2433H97.8261V25.8752H84.9604V30.3426C84.9604 32.0153 86.3169 33.3617 88.0021 33.3617H100.806V30.5466H88.0021H88.0227Z" fill="#023F97"/>
<path d="M130.175 13.1073V9.47632H135.436V6.68164H122.077V9.47632H127.338V13.1073L121.707 18.5947L123.68 20.5938L128.736 15.6776L133.545 20.5734L135.559 18.6151L130.175 13.1073Z" fill="#023F97"/>
</g>
<defs>
<clipPath id="clip0_2965_210299">
<rect width="140" height="40.0004" fill="white"/>
</clipPath>
</defs>
</svg>
