<svg width="20" height="22" viewBox="0 0 20 22" fill="none" xmlns="http://www.w3.org/2000/svg">
<path d="M19.6777 9.04838L10.9679 0.345362C10.7511 0.126635 10.462 0.0115119 10.1487 0C9.83552 0 9.53435 0.115118 9.31751 0.322333L0.342664 8.82965C0.00535413 9.14047 -0.09102 9.62398 0.0896815 10.0384C0.270383 10.4528 0.679973 10.7291 1.1498 10.7291L6.77564 10.7867L6.79973 8.56488L3.94465 8.53034L10.1126 2.68228L16.0998 8.65697L13.2327 8.62244L13.1363 16.4966C14.0157 15.7023 14.8229 14.8389 15.4855 13.9179L15.5216 10.8788L18.8345 10.9133C19.3043 10.9133 19.7259 10.6601 19.9066 10.2456C20.0873 9.83119 20.003 9.3592 19.6777 9.03687V9.04838Z" fill="white"/>
<path d="M8.85938 19.7188C9.64241 19.2468 10.4255 18.7287 11.1844 18.1647V11.1309H8.85938V19.7073V19.7188Z" fill="white"/>
<path d="M4.48438 13.6648L4.52052 21.9995C5.23127 21.6771 6.01431 21.2972 6.83349 20.8598L6.8094 13.6533H4.48438V13.6648Z" fill="white"/>
</svg>
