<svg width="16" height="16" viewBox="0 0 16 16" fill="none" xmlns="http://www.w3.org/2000/svg">
<mask id="mask0_3050_17478" style="mask-type:alpha" maskUnits="userSpaceOnUse" x="0" y="0" width="16" height="16">
<rect width="16" height="16" fill="#434655"/>
</mask>
<g mask="url(#mask0_3050_17478)">
<path d="M7.57377 10.7212C7.28233 11.0046 6.94718 11.072 6.56831 10.9232C6.18944 10.7743 6 10.4944 6 10.0834V5.89533C6 5.49849 6.18944 5.22566 6.56831 5.07685C6.94718 4.92803 7.28233 4.99535 7.57377 5.27881L9.71585 7.36222C9.80328 7.44726 9.8725 7.54647 9.9235 7.65985C9.9745 7.77323 10 7.88662 10 8C10 8.11338 9.9745 8.22677 9.9235 8.34015C9.8725 8.45353 9.80328 8.55274 9.71585 8.63778L7.57377 10.7212Z" fill="#1C64F2"/>
</g>
</svg>
