<svg width="177" height="150" viewBox="0 0 177 150" fill="none" xmlns="http://www.w3.org/2000/svg">
<path fill-rule="evenodd" clip-rule="evenodd" d="M81.5212 6.62863L37.0504 29.9977L37.0732 30.0091V32.5158L43.0095 35.6377V40.5827V73.2607L1.37585 95.1371L1.38725 99.3643L95.6155 148.814L175.579 106.839L175.624 102.532L147.447 87.7424V51.4412L154.933 47.5216V45.1973L154.829 45.0729L155.001 45.1631L112.046 22.6372V10.1038L112.604 9.80755V6.84512L111.51 6.27542V5.04487L113.345 4.07638L107.499 1L97.5867 6.20705L99.4325 7.39203V8.61118L99.4325 9.1467L99.4439 12.1091L99.4325 12.394L99.4439 16.0287L81.5212 6.62863Z" fill="#F5F7F9"/>
<path d="M113.345 4.07638L111.51 5.04487V6.27542L112.604 6.84512V9.80755L112.046 10.1038V22.6372L155.001 45.1631L154.829 45.0729L154.933 45.1973V47.5216L147.447 51.4412V87.7424L175.624 102.532L175.579 106.839L95.6155 148.814L1.38725 99.3643L1.37585 95.1371L43.0095 73.2607V40.5827V35.6377L37.0732 32.5158V30.0091L37.0504 29.9977L81.5212 6.62863L99.4439 16.0287L99.4325 12.394L99.4439 12.1091L99.4325 9.1467L99.4325 8.61118V7.39203L97.5867 6.20705M113.345 4.07638H113.333M113.345 4.07638L107.499 1L97.5867 6.20705M97.5867 6.20705L103.352 3.17858" stroke="#C7CFD5" stroke-miterlimit="10" stroke-linecap="round" stroke-linejoin="round" stroke-dasharray="5.7 5.7"/>
<path d="M90.516 83.0686C91.45 83.0686 92.3458 83.4036 93.0063 83.9999C93.6667 84.5962 94.0378 85.405 94.0378 86.2483C94.0378 87.0916 93.6667 87.9004 93.0063 88.4967C92.3458 89.093 91.45 89.4281 90.516 89.4281C89.582 89.4281 88.6862 89.093 88.0257 88.4967C87.3653 87.9004 86.9942 87.0916 86.9942 86.2483C86.9942 85.405 87.3653 84.5962 88.0257 83.9999C88.6862 83.4036 89.582 83.0686 90.516 83.0686ZM90.516 55.2461C93.0846 55.2461 95.548 56.1674 97.3643 57.8072C99.1805 59.4471 100.201 61.6712 100.201 63.9903C100.201 67.2018 99.1549 68.9952 96.4995 71.4913L95.9043 72.035C93.7138 74.0128 93.1573 74.8522 93.1573 76.7092C93.1573 77.3417 92.8791 77.9482 92.3837 78.3955C91.8884 78.8427 91.2165 79.094 90.516 79.094C89.8155 79.094 89.1436 78.8427 88.6483 78.3955C88.153 77.9482 87.8747 77.3417 87.8747 76.7092C87.8747 73.4977 88.9206 71.7043 91.5761 69.2082L92.1712 68.6645C94.3618 66.6867 94.9182 65.8473 94.9182 63.9903C94.9146 62.9737 94.4796 61.997 93.7028 61.261C92.9259 60.5251 91.8663 60.0859 90.7418 60.0337C89.6172 59.9816 88.5133 60.3205 87.6571 60.9808C86.8009 61.641 86.2574 62.5724 86.1384 63.5833L86.1138 63.9903C86.1138 64.6228 85.8355 65.2294 85.3402 65.6766C84.8448 66.1238 84.173 66.3751 83.4724 66.3751C82.7719 66.3751 82.1001 66.1238 81.6047 65.6766C81.1094 65.2294 80.8311 64.6228 80.8311 63.9903C80.8311 61.6712 81.8515 59.4471 83.6678 57.8072C85.484 56.1674 87.9474 55.2461 90.516 55.2461Z" fill="#C7CFD5"/>
</svg>
