<svg width="160" height="130" viewBox="0 0 160 130" fill="none" xmlns="http://www.w3.org/2000/svg">
<mask id="mask0_7_9771" style="mask-type:alpha" maskUnits="userSpaceOnUse" x="0" y="0" width="160" height="130">
<path d="M0 0H160V130H0V0Z" fill="#D9D9D9"/>
</mask>
<g mask="url(#mask0_7_9771)">
<path fill-rule="evenodd" clip-rule="evenodd" d="M155.931 89.104L85.7067 126.025L3 82.6141L73.2452 45.7028L155.931 89.104Z" fill="#82B23A"/>
<path fill-rule="evenodd" clip-rule="evenodd" d="M3 82.6141L85.7067 126.025V129.722L3.01035 86.3213L3 82.6141Z" fill="#6A8D2E"/>
<path fill-rule="evenodd" clip-rule="evenodd" d="M155.931 89.104L85.7067 126.025V129.722L155.89 92.8866L155.931 89.104Z" fill="#5F8025"/>
<path fill-rule="evenodd" clip-rule="evenodd" d="M96.6015 106.517L69.9872 63.0029L91.9115 55.5037L155.931 89.104L123.05 106.395L96.6015 106.517Z" fill="#547325"/>
<path fill-rule="evenodd" clip-rule="evenodd" d="M138.531 90.3303L99.4238 110.47C98.3135 111.045 97.0476 111.036 95.9374 110.46L85.3436 104.904C84.8144 104.631 84.223 104.631 83.6938 104.904L64.3945 114.847L22.1852 92.698L39.7413 83.6518C40.2704 83.3782 40.5817 82.8971 40.5817 82.3406C40.5817 81.784 40.2808 81.3029 39.7517 81.02L33.9204 77.9637C33.3912 77.6807 33.0903 77.209 33.0903 76.6525C33.0903 76.0959 33.4016 75.6149 33.9308 75.3413L75.3204 54.0133L138.551 87.7268C139.081 88.0098 139.382 88.4909 139.371 89.0474C139.371 89.604 139.06 90.0756 138.531 90.3492V90.3303Z" fill="#D9C593"/>
<path fill-rule="evenodd" clip-rule="evenodd" d="M138.531 90.3303L107.195 106.47L96.6118 106.517L69.9872 63.0029L83.5382 58.3713L138.562 87.7079C139.091 87.9909 139.392 88.472 139.382 89.0286C139.382 89.5851 139.07 90.0568 138.541 90.3303H138.531Z" fill="#B89F61"/>
<path fill-rule="evenodd" clip-rule="evenodd" d="M72.9443 104.829L61.4581 98.6597L80.7781 88.2079L92.2332 94.4054L72.9443 104.829Z" fill="#B89F61"/>
<path fill-rule="evenodd" clip-rule="evenodd" d="M96.5807 106.508L40.6232 77.1996V32.5061L96.5807 61.8521V106.508Z" fill="#B32D22"/>
<path fill-rule="evenodd" clip-rule="evenodd" d="M130.116 88.9909V44.4011C115.579 51.9947 111.149 54.1454 96.5807 61.7861V106.546C111.055 99.0653 115.714 96.5467 130.116 89.0003V88.9909Z" fill="#7E2926"/>
<path fill-rule="evenodd" clip-rule="evenodd" d="M96.5807 104.536L40.6232 75.2187V72.8228L96.5807 102.169V104.536Z" fill="#6E2A26"/>
<path fill-rule="evenodd" clip-rule="evenodd" d="M67.7356 86.8873H83.0297V99.4143L67.7356 91.3963V86.8873Z" fill="#6E2A26"/>
<path fill-rule="evenodd" clip-rule="evenodd" d="M96.8505 104.282L39.5441 74.2565V28.4877L96.8505 58.5412V104.282Z" fill="#CCCCCC"/>
<path fill-rule="evenodd" clip-rule="evenodd" d="M39.5441 34.7323V28.3839L96.8712 58.4751L96.8505 64.0029L39.5441 34.7323Z" fill="#666666"/>
<path fill-rule="evenodd" clip-rule="evenodd" d="M131.195 86.3025V40.6656C116.305 48.4384 111.771 50.6458 96.8505 58.4751V104.282C111.678 96.6127 116.44 94.0375 131.195 86.3119V86.3025Z" fill="#7F7F7F"/>
<path fill-rule="evenodd" clip-rule="evenodd" d="M80.996 72.1813L83.341 97.1976L57.8991 84.68L54.3817 57.8243L80.996 72.1813Z" fill="#666666"/>
<path fill-rule="evenodd" clip-rule="evenodd" d="M50.2936 76.2564V60.4467C48.1458 59.3336 45.9979 58.2205 43.8605 57.1168V72.8982C46.0083 74.0207 48.1561 75.1338 50.2936 76.2564Z" fill="#7F7F7F"/>
<path fill-rule="evenodd" clip-rule="evenodd" d="M50.2936 76.2564V69.54C48.1458 70.6531 45.9979 71.7662 43.8605 72.8699V72.8982C46.0083 74.0207 48.1561 75.1338 50.2936 76.2564Z" fill="#363A3D"/>
<path fill-rule="evenodd" clip-rule="evenodd" d="M50.2936 75.6432V60.4561C48.3533 59.4468 46.4026 58.4469 44.4623 57.4376V72.6058C46.4026 73.6151 48.3533 74.6339 50.2936 75.6432Z" fill="white"/>
<path fill-rule="evenodd" clip-rule="evenodd" d="M50.2936 60.5976C48.4985 59.6732 46.7035 58.7393 44.9188 57.8149V72.219C46.7139 73.1529 48.5089 74.0868 50.2936 75.0206V60.5976Z" fill="#6CB5EF"/>
<path fill-rule="evenodd" clip-rule="evenodd" d="M48.1665 59.3525V74.5301L47.7411 74.3132V59.1355L48.1665 59.3525Z" fill="white"/>
<path fill-rule="evenodd" clip-rule="evenodd" d="M50.2521 65.5405C48.457 64.6161 46.662 63.6822 44.8773 62.7578V63.1634C46.6724 64.0973 48.4674 65.0311 50.2521 65.965V65.5405Z" fill="white"/>
<path fill-rule="evenodd" clip-rule="evenodd" d="M50.2521 70.1815C48.457 69.2571 46.662 68.3232 44.8773 67.3988V67.8044C46.6724 68.7383 48.4674 69.6721 50.2521 70.606V70.1815Z" fill="white"/>
<path fill-rule="evenodd" clip-rule="evenodd" d="M96.6637 100.593V84.7838C94.5159 83.6707 88.1243 80.3691 85.9764 79.256V95.0374C88.1243 96.1599 94.5159 99.4709 96.6637 100.584V100.593Z" fill="#7F7F7F"/>
<path fill-rule="evenodd" clip-rule="evenodd" d="M97.0372 100.593V84.7838C99.1851 83.6707 108.938 78.624 111.076 77.5204V93.3018C108.928 94.4243 99.1747 99.4709 97.0372 100.593Z" fill="#CCCCCC"/>
<path fill-rule="evenodd" clip-rule="evenodd" d="M96.8504 100.697V93.9809C95.1384 94.8676 89.4109 93.3678 86.9207 94.5846L85.9764 95.0374L96.8504 100.697Z" fill="#363A3D"/>
<path fill-rule="evenodd" clip-rule="evenodd" d="M96.8505 100.697V93.9809C98.5625 94.8676 107.652 91.6321 110.142 92.8395L111.086 93.2923L96.8505 100.688V100.697Z" fill="#363A3D"/>
<path fill-rule="evenodd" clip-rule="evenodd" d="M96.6637 99.9803V84.7932C94.7234 83.7838 88.5289 80.5861 86.5782 79.5767V94.745C88.5185 95.7543 94.713 98.971 96.6637 99.9803Z" fill="white"/>
<path fill-rule="evenodd" clip-rule="evenodd" d="M97.0372 99.9803V84.7932C98.9775 83.7838 108.534 78.841 110.474 77.8411V93.0093C108.534 94.0186 98.9775 98.971 97.0372 99.9803Z" fill="#E5E5E5"/>
<path fill-rule="evenodd" clip-rule="evenodd" d="M96.6637 84.897C94.8686 83.9725 88.8298 80.8785 87.0348 79.9446V94.3488C88.8298 95.2827 94.8686 98.3861 96.6637 99.32V84.897Z" fill="#6CB5EF"/>
<path fill-rule="evenodd" clip-rule="evenodd" d="M97.0372 84.8969C98.8323 83.9725 108.233 79.1334 110.018 78.2089V92.6131C108.223 93.547 98.8219 98.3861 97.0372 99.32V84.8969Z" fill="#5283AA"/>
<path fill-rule="evenodd" clip-rule="evenodd" d="M90.2928 81.4916V96.6693L89.8778 96.4523V81.2747L90.2928 81.4916Z" fill="white"/>
<path fill-rule="evenodd" clip-rule="evenodd" d="M103.418 81.4916V96.6693L103.833 96.4523V81.2747L103.418 81.4916Z" fill="#E5E5E5"/>
<path fill-rule="evenodd" clip-rule="evenodd" d="M96.6637 89.8964C94.8686 88.972 88.7987 85.8308 87.0037 84.9064V85.312C88.7987 86.2458 94.879 89.387 96.6637 90.3209V89.8964Z" fill="white"/>
<path fill-rule="evenodd" clip-rule="evenodd" d="M97.0372 89.8964C98.8323 88.972 108.472 83.9631 110.267 83.0386V83.4443C108.472 84.3781 98.8323 89.387 97.0372 90.3209V89.8964Z" fill="#E5E5E5"/>
<path fill-rule="evenodd" clip-rule="evenodd" d="M96.6637 94.5281C94.8686 93.6036 88.7987 90.4624 87.0037 89.5286V89.9342C88.7987 90.8681 94.879 94.0093 96.6637 94.9431V94.5186V94.5281Z" fill="white"/>
<path fill-rule="evenodd" clip-rule="evenodd" d="M97.0372 94.528C98.8323 93.6036 108.472 88.5947 110.267 87.6702V88.0759C108.472 89.0097 98.8323 94.0186 97.0372 94.9525V94.528Z" fill="#E5E5E5"/>
<path fill-rule="evenodd" clip-rule="evenodd" d="M83.1023 88.2268V77.7185C80.9544 76.6054 78.8066 75.4923 76.6692 74.3886V84.8781C78.817 86.0006 80.9648 87.1137 83.1023 88.2362V88.2268Z" fill="#999999"/>
<path fill-rule="evenodd" clip-rule="evenodd" d="M83.1023 88.2268V81.5105C80.9544 82.6236 78.8066 83.7272 76.6692 84.8403V84.8686C78.817 85.9912 80.9648 87.1043 83.1023 88.2268Z" fill="#363A3D"/>
<path fill-rule="evenodd" clip-rule="evenodd" d="M83.1023 87.6043V77.709C81.162 76.6997 79.2113 75.6998 77.271 74.6905V84.5668C79.2113 85.5762 81.162 86.5949 83.1023 87.6043Z" fill="#E5E5E5"/>
<path fill-rule="evenodd" clip-rule="evenodd" d="M83.1024 77.9354C81.3074 77.011 79.5123 76.0771 77.7277 75.1526V84.18C79.5227 85.1139 81.3177 86.0478 83.1024 86.9816V77.9354Z" fill="#6CB5EF"/>
<path fill-rule="evenodd" clip-rule="evenodd" d="M64.7576 107.121L64.7472 107.131L37.2095 92.4433L37.1991 91.3208L64.7472 106.008L64.7576 107.121Z" fill="#B32D22"/>
<path fill-rule="evenodd" clip-rule="evenodd" d="M81.1205 97.3673L64.7472 106.008L37.1991 91.3208L53.261 82.7274L81.1205 97.3673Z" fill="#D0541B"/>
<path fill-rule="evenodd" clip-rule="evenodd" d="M81.1932 98.4522L64.7577 107.121L64.7473 106.008L81.1932 97.3297V98.4522Z" fill="#982724"/>
<path fill-rule="evenodd" clip-rule="evenodd" d="M71.4293 102.49L66.8846 100.103L76.7107 94.9431L81.1931 97.3297L71.4293 102.49Z" fill="#7E2926"/>
<path fill-rule="evenodd" clip-rule="evenodd" d="M64.7576 104.621H64.7473L40.1148 91.5566L40.1044 90.4436L67.2063 90.0757L64.7576 104.621Z" fill="#B32D22"/>
<path fill-rule="evenodd" clip-rule="evenodd" d="M79.8546 95.5468L64.7473 103.508L40.1044 90.4436L55.1806 82.3878L79.8546 95.5468Z" fill="#D0541B"/>
<path fill-rule="evenodd" clip-rule="evenodd" d="M79.9066 96.641L64.7577 104.621L64.7681 103.499L79.9066 95.509V96.641Z" fill="#982724"/>
<path fill-rule="evenodd" clip-rule="evenodd" d="M69.8833 100.801L65.3386 98.4144L75.258 93.2169L79.9065 95.5091L69.8833 100.801Z" fill="#7E2926"/>
<path fill-rule="evenodd" clip-rule="evenodd" d="M64.7265 102.112L64.7161 102.122L43.0304 90.6888L43.02 89.5757L64.7369 100.99L64.7265 102.112Z" fill="#B32D22"/>
<path fill-rule="evenodd" clip-rule="evenodd" d="M78.4331 93.7828L64.7161 100.999L43.02 89.5757L56.571 82.3123L78.4331 93.7828Z" fill="#D0541B"/>
<path fill-rule="evenodd" clip-rule="evenodd" d="M68.5345 98.9898L47.7515 88.0853L57.6709 82.8878L78.5473 93.7263L68.5345 98.9898Z" fill="#7E2926"/>
<path fill-rule="evenodd" clip-rule="evenodd" d="M78.5473 94.8393L64.7266 102.112L64.7369 100.99L78.5473 93.7263V94.8393Z" fill="#982724"/>
<path fill-rule="evenodd" clip-rule="evenodd" d="M119.48 88.755V48.6459C121.628 47.5329 123.776 46.4198 125.924 45.3161V85.4063C123.776 86.5288 121.628 87.6419 119.48 88.7645V88.755Z" fill="#B2B2B2"/>
<path fill-rule="evenodd" clip-rule="evenodd" d="M119.48 88.7551V82.0388C121.628 83.1519 123.776 84.2555 125.924 85.3686V85.3969C123.776 86.5194 121.628 87.6325 119.48 88.7551Z" fill="#363A3D"/>
<path fill-rule="evenodd" clip-rule="evenodd" d="M119.48 88.1419V48.646C121.421 47.6367 123.371 46.6368 125.312 45.6274V85.1045C123.371 86.1138 121.421 87.1326 119.48 88.1419Z" fill="#D8E1E2"/>
<path fill-rule="evenodd" clip-rule="evenodd" d="M119.48 48.7875C121.276 47.863 123.071 46.9292 124.855 46.0048V84.7272C123.06 85.661 121.265 86.5949 119.48 87.5288V48.7875Z" fill="#5283AA"/>
<path fill-rule="evenodd" clip-rule="evenodd" d="M121.597 47.5423V86.5855L122.023 86.3685V47.3254L121.597 47.5423Z" fill="#D8E1E2"/>
<path fill-rule="evenodd" clip-rule="evenodd" d="M50.2936 52.7305V36.9208C48.1458 35.8077 45.9979 34.6946 43.8605 33.5909V49.3723C46.0083 50.4949 48.1561 51.608 50.2936 52.7305Z" fill="#7F7F7F"/>
<path fill-rule="evenodd" clip-rule="evenodd" d="M50.2936 52.7305V46.0142C48.1458 47.1273 45.9979 48.2403 43.8605 49.344V49.3723C46.0083 50.4949 48.1561 51.6079 50.2936 52.7305Z" fill="#363A3D"/>
<path fill-rule="evenodd" clip-rule="evenodd" d="M50.2936 52.1173V36.9302C48.3533 35.9209 46.4026 34.921 44.4623 33.9116V49.0799C46.4026 50.0892 48.3533 51.1079 50.2936 52.1173Z" fill="white"/>
<path fill-rule="evenodd" clip-rule="evenodd" d="M50.2936 37.0717C48.4985 36.1473 46.7035 35.2134 44.9188 34.2889V48.6931C46.7139 49.627 48.5089 50.5609 50.2936 51.4947V37.0717Z" fill="#6CB5EF"/>
<path fill-rule="evenodd" clip-rule="evenodd" d="M92.6067 74.898V59.0883C90.4589 57.9752 88.311 56.8621 86.1736 55.7584V71.5398C88.3214 72.6624 90.4692 73.7754 92.6067 74.898Z" fill="#7F7F7F"/>
<path fill-rule="evenodd" clip-rule="evenodd" d="M92.6067 74.898V68.1817C90.4589 69.2948 88.311 70.3985 86.1736 71.5115V71.5399C88.3214 72.6624 90.4692 73.7755 92.6067 74.898Z" fill="#363A3D"/>
<path fill-rule="evenodd" clip-rule="evenodd" d="M92.6067 74.2848V59.0977C90.6664 58.0884 88.7157 57.0885 86.7754 56.0792V71.2474C88.7157 72.2567 90.6664 73.2755 92.6067 74.2848Z" fill="white"/>
<path fill-rule="evenodd" clip-rule="evenodd" d="M92.6067 59.2392C90.8116 58.3148 89.0166 57.3809 87.2319 56.4565V70.8607C89.027 71.7945 90.822 72.7284 92.6067 73.6623V59.2392Z" fill="#6CB5EF"/>
<path fill-rule="evenodd" clip-rule="evenodd" d="M119.511 53.7397C121.307 52.8153 123.102 51.8815 124.886 50.957V51.3626C123.091 52.2965 121.296 53.2304 119.511 54.1642V53.7397Z" fill="#D8E1E2"/>
<path fill-rule="evenodd" clip-rule="evenodd" d="M119.511 58.56C121.307 57.6356 123.102 56.7017 124.886 55.7773V56.1829C123.091 57.1168 121.296 58.0506 119.511 58.9845V58.56Z" fill="#D8E1E2"/>
<path fill-rule="evenodd" clip-rule="evenodd" d="M119.511 63.3897C121.307 62.4652 123.102 61.5314 124.886 60.6069V61.0126C123.091 61.9464 121.296 62.8803 119.511 63.8142V63.3897Z" fill="#D8E1E2"/>
<path fill-rule="evenodd" clip-rule="evenodd" d="M119.511 68.21C121.307 67.2855 123.102 66.3517 124.886 65.4272V65.8329C123.091 66.7667 121.296 67.7006 119.511 68.6345V68.21Z" fill="#D8E1E2"/>
<path fill-rule="evenodd" clip-rule="evenodd" d="M119.511 73.0396C121.307 72.1152 123.102 71.1813 124.886 70.2569V70.6625C123.091 71.5964 121.296 72.5302 119.511 73.4641V73.0396Z" fill="#D8E1E2"/>
<path fill-rule="evenodd" clip-rule="evenodd" d="M119.511 77.8599C121.307 76.9355 123.102 76.0016 124.886 75.0772V75.4828C123.091 76.4167 121.296 77.3506 119.511 78.2844V77.8599Z" fill="#D8E1E2"/>
<path fill-rule="evenodd" clip-rule="evenodd" d="M119.511 82.6896C121.307 81.7652 123.102 80.8314 124.886 79.9069V80.3125C123.091 81.2464 121.296 82.1803 119.511 83.1141V82.6896Z" fill="#D8E1E2"/>
<path fill-rule="evenodd" clip-rule="evenodd" d="M93.5613 83.1424V98.3295L93.1462 98.1125V82.9254L93.5613 83.1424Z" fill="white"/>
<path fill-rule="evenodd" clip-rule="evenodd" d="M100.14 83.1424V98.3295L100.555 98.1125V82.9254L100.14 83.1424Z" fill="#E5E5E5"/>
<path fill-rule="evenodd" clip-rule="evenodd" d="M96.8505 84.8781V100.065L96.4354 99.8483V84.6611L96.8505 84.8781Z" fill="white"/>
<path fill-rule="evenodd" clip-rule="evenodd" d="M96.8505 84.8781V100.065L97.2655 99.8483V84.6611L96.8505 84.8781Z" fill="#E5E5E5"/>
<path fill-rule="evenodd" clip-rule="evenodd" d="M106.718 79.8975V94.9525L107.133 94.7356V79.6805L106.718 79.8975Z" fill="#E5E5E5"/>
<path fill-rule="evenodd" clip-rule="evenodd" d="M74.7912 65.5027V49.693C72.6434 48.5799 62.89 43.5333 60.7526 42.4296V58.211C62.9004 59.3336 72.6538 64.3802 74.7912 65.5027Z" fill="#7F7F7F"/>
<path fill-rule="evenodd" clip-rule="evenodd" d="M74.7912 65.5027V58.7864C73.0792 59.6731 64.1766 56.5414 61.6864 57.7582L60.7422 58.211L74.7808 65.5027H74.7912Z" fill="#363A3D"/>
<path fill-rule="evenodd" clip-rule="evenodd" d="M74.7912 64.8801V49.693C72.8509 48.6837 63.2947 43.7408 61.3544 42.7409V57.9092C63.2947 58.9185 72.8509 63.8708 74.7912 64.8801Z" fill="white"/>
<path fill-rule="evenodd" clip-rule="evenodd" d="M74.7912 49.8062C72.9962 48.8818 63.5956 44.0427 61.8109 43.1182V57.5224C63.606 58.4563 73.0065 63.2954 74.7912 64.2293V49.8062Z" fill="#6CB5EF"/>
<path fill-rule="evenodd" clip-rule="evenodd" d="M45.7593 91.0189L47.3987 88.4626L54.2364 88.5192L55.5438 91.0095L45.7593 91.0189Z" fill="#7E2926"/>
<path fill-rule="evenodd" clip-rule="evenodd" d="M48.4985 89.5851L45.7593 91.019V66.8328L48.4985 67.9741V89.5851Z" fill="#7F7F7F"/>
<path fill-rule="evenodd" clip-rule="evenodd" d="M64.7369 100.99L65.8057 98.4333L69.541 98.4616L64.7369 100.99Z" fill="#7E2926"/>
<path fill-rule="evenodd" clip-rule="evenodd" d="M70.7237 98.9521L71.2425 100.084L68.6589 101.442H65.9923L70.7237 98.9521Z" fill="#7E2926"/>
<path fill-rule="evenodd" clip-rule="evenodd" d="M73.3905 100.065L73.8989 101.197L71.3153 102.555H68.6487L73.3905 100.065Z" fill="#7E2926"/>
<path fill-rule="evenodd" clip-rule="evenodd" d="M82.2101 77.4732L83.1024 86.9627V86.9816C81.3074 86.0478 79.5123 85.1139 77.7277 84.18V75.1526L82.2204 77.4732H82.2101Z" fill="#5283AA"/>
<path fill-rule="evenodd" clip-rule="evenodd" d="M80.9752 76.8412V86.5005L80.5498 86.2836V76.6242L80.9752 76.8412Z" fill="#E5E5E5"/>
<path fill-rule="evenodd" clip-rule="evenodd" d="M83.0608 82.1425C81.2657 81.2181 79.4707 80.2842 77.686 79.3598V79.7654C79.4811 80.6993 81.2761 81.6331 83.0608 82.567V82.1425Z" fill="#E5E5E5"/>
<path fill-rule="evenodd" clip-rule="evenodd" d="M92.6067 60.8334L87.2319 58.0884V56.4565C89.027 57.3809 90.822 58.3148 92.6067 59.2392V60.8334Z" fill="#5283AA"/>
<path fill-rule="evenodd" clip-rule="evenodd" d="M74.7912 51.74L61.8109 45.1086V43.1277C63.606 44.0521 73.0065 48.8912 74.7912 49.8157V51.74Z" fill="#5283AA"/>
<path fill-rule="evenodd" clip-rule="evenodd" d="M50.2936 39.2224L44.9188 36.4774V34.2889C46.7139 35.2134 48.5089 36.1473 50.2936 37.0717V39.2224Z" fill="#5283AA"/>
<path fill-rule="evenodd" clip-rule="evenodd" d="M48.1665 35.8265V51.0042L47.7411 50.7873V35.6096L48.1665 35.8265Z" fill="white"/>
<path fill-rule="evenodd" clip-rule="evenodd" d="M50.2521 42.0146C48.457 41.0902 46.662 40.1563 44.8773 39.2319V39.6375C46.6724 40.5714 48.4674 41.5052 50.2521 42.4391V42.0146Z" fill="white"/>
<path fill-rule="evenodd" clip-rule="evenodd" d="M50.2521 46.6461C48.457 45.7217 46.662 44.7878 44.8773 43.8634V44.269C46.6724 45.2029 48.4674 46.1368 50.2521 47.0706V46.6461Z" fill="white"/>
<path fill-rule="evenodd" clip-rule="evenodd" d="M68.4203 46.4009V61.5786L67.9949 61.3616V46.184L68.4203 46.4009Z" fill="white"/>
<path fill-rule="evenodd" clip-rule="evenodd" d="M74.7911 54.8057C72.9961 53.8813 63.3568 48.8724 61.5618 47.9479V48.3535C63.3568 49.2874 72.9961 54.2963 74.7911 55.2302V54.8057Z" fill="white"/>
<path fill-rule="evenodd" clip-rule="evenodd" d="M74.7911 59.4373C72.9961 58.5129 63.3568 53.504 61.5618 52.5795V52.9851C63.3568 53.919 72.9961 58.9279 74.7911 59.8618V59.4373Z" fill="white"/>
<path fill-rule="evenodd" clip-rule="evenodd" d="M71.6887 48.0517V63.2388L71.2737 63.0218V47.8347L71.6887 48.0517Z" fill="white"/>
<path fill-rule="evenodd" clip-rule="evenodd" d="M65.1103 44.8067V59.8618L64.6953 59.6448V44.5898L65.1103 44.8067Z" fill="white"/>
<path fill-rule="evenodd" clip-rule="evenodd" d="M90.4796 57.9941V73.1717L90.0646 72.9548V57.7771L90.4796 57.9941Z" fill="white"/>
<path fill-rule="evenodd" clip-rule="evenodd" d="M92.5652 64.1916C90.7701 63.2671 88.9751 62.3332 87.1904 61.4088V61.8144C88.9855 62.7483 90.7805 63.6822 92.5652 64.616V64.1916Z" fill="white"/>
<path fill-rule="evenodd" clip-rule="evenodd" d="M92.5652 68.8231C90.7701 67.8987 88.9751 66.9648 87.1904 66.0404V66.446C88.9855 67.3799 90.7805 68.3138 92.5652 69.2476V68.8231Z" fill="white"/>
<path fill-rule="evenodd" clip-rule="evenodd" d="M68.1403 88.1513V72.436C65.9924 71.3229 63.8446 70.2098 61.7072 69.1061V84.8875C63.855 86.0101 66.0028 87.0383 68.1403 88.1513Z" fill="#999999"/>
<path fill-rule="evenodd" clip-rule="evenodd" d="M73.5046 91.3775L73.4839 87.2175C71.6681 88.1514 67.3205 81.9539 64.6954 83.3217L61.4166 85.029L73.5046 91.3869V91.3775Z" fill="#7E2926"/>
<path fill-rule="evenodd" clip-rule="evenodd" d="M68.1195 72.7096C66.3244 71.7851 64.5294 70.8513 62.7448 69.9268V84.331C64.5398 85.2649 66.3348 86.1987 68.1195 87.1326V72.7096Z" fill="#0B573C"/>
<path fill-rule="evenodd" clip-rule="evenodd" d="M67.6215 82.0105C66.1585 81.2558 64.6954 80.4918 63.2324 79.7371V82.7557C64.6954 83.5198 66.1585 84.2838 67.6215 85.0385V82.0011V82.0105Z" fill="#127351"/>
<path fill-rule="evenodd" clip-rule="evenodd" d="M67.6214 82.0105C66.2311 81.2936 64.8407 80.5672 63.4399 79.8503V82.6425C64.8303 83.3688 66.2311 84.0952 67.6214 84.8215V82.0105Z" fill="#05402B"/>
<path fill-rule="evenodd" clip-rule="evenodd" d="M73.4839 75.5017C71.6888 74.5773 69.8938 73.6434 68.1091 72.719V87.1232C69.9042 88.057 71.6992 88.9909 73.4839 89.9248V75.5017Z" fill="#0B573C"/>
<path fill-rule="evenodd" clip-rule="evenodd" d="M72.9858 84.8027C71.5228 84.048 70.0598 83.2839 68.5968 82.5293V85.4912C70.0598 86.2553 71.5228 87.01 72.9858 87.774V84.8027Z" fill="#127351"/>
<path fill-rule="evenodd" clip-rule="evenodd" d="M72.9858 84.8027C71.5955 84.0858 70.2051 83.3594 68.8043 82.6425V85.4064C70.1947 86.1327 71.5955 86.8591 72.9858 87.5854V84.8121V84.8027Z" fill="#05402B"/>
<path d="M68.2025 72.7567V87.1798L68.0988 87.1232V72.7001L68.2025 72.7567Z" fill="#05402B"/>
<path fill-rule="evenodd" clip-rule="evenodd" d="M67.6215 78.3128C66.1585 77.5581 64.6954 76.7941 63.2324 76.0394V79.058C64.6954 79.822 66.1585 80.5861 67.6215 81.3408V78.3033V78.3128Z" fill="#127351"/>
<path fill-rule="evenodd" clip-rule="evenodd" d="M67.6215 74.6244C66.1585 73.8698 64.6954 73.1057 63.2324 72.3511V75.3696C64.6954 76.1337 66.1585 76.8978 67.6215 77.6524V74.615V74.6244Z" fill="#127351"/>
<path fill-rule="evenodd" clip-rule="evenodd" d="M67.6214 78.3128C66.2311 77.5958 64.8407 76.8695 63.4399 76.1526V78.9447C64.8303 79.6711 66.2311 80.3974 67.6214 81.1238V78.3128Z" fill="#05402B"/>
<path fill-rule="evenodd" clip-rule="evenodd" d="M67.6214 74.6245C66.2311 73.9075 64.8407 73.1812 63.4399 72.4643V75.2565C64.8303 75.9828 66.2311 76.7092 67.6214 77.4355V74.6245Z" fill="#05402B"/>
<path fill-rule="evenodd" clip-rule="evenodd" d="M72.9858 81.1144C71.5228 80.3597 70.0598 79.5956 68.5968 78.841V81.8029C70.0598 82.567 71.5228 83.3217 72.9858 84.0857V81.1144Z" fill="#127351"/>
<path fill-rule="evenodd" clip-rule="evenodd" d="M72.9858 77.4166C71.5228 76.662 70.0598 75.8979 68.5968 75.1432V78.1052C70.0598 78.8693 71.5228 79.6239 72.9858 80.388V77.4166Z" fill="#127351"/>
<path fill-rule="evenodd" clip-rule="evenodd" d="M72.9858 81.1144C71.5955 80.3975 70.2051 79.6711 68.8043 78.9542V81.7181C70.1947 82.4444 71.5955 83.1708 72.9858 83.8971V81.1238V81.1144Z" fill="#05402B"/>
<path fill-rule="evenodd" clip-rule="evenodd" d="M72.9858 77.4166C71.5955 76.6997 70.2051 75.9734 68.8043 75.2565V78.0204C70.1947 78.7467 71.5955 79.473 72.9858 80.1994V77.4261V77.4166Z" fill="#05402B"/>
<path fill-rule="evenodd" clip-rule="evenodd" d="M68.4204 81.8785C68.5242 81.9256 68.6072 82.0765 68.6072 82.1992C68.6072 82.3218 68.5242 82.3878 68.4204 82.3407C68.3166 82.2935 68.2336 82.1426 68.2336 82.0199C68.2336 81.8973 68.3166 81.8313 68.4204 81.8785Z" fill="#E8A611"/>
<path fill-rule="evenodd" clip-rule="evenodd" d="M68.3996 81.8879C68.5033 81.935 68.5863 82.086 68.5863 82.2086C68.5863 82.3312 68.5033 82.3973 68.3996 82.3501C68.2958 82.3029 68.2128 82.152 68.2128 82.0294C68.2128 81.9067 68.2958 81.8407 68.3996 81.8879Z" fill="#BA7823"/>
<path fill-rule="evenodd" clip-rule="evenodd" d="M68.3478 82.0294C68.3478 82.0294 68.4308 82.1143 68.4308 82.1709C68.4308 82.2275 68.3893 82.2558 68.3478 82.2369C68.3063 82.218 68.2648 82.152 68.2648 82.0954C68.2648 82.0388 68.3063 82.0105 68.3478 82.0294Z" fill="#934E26"/>
<path fill-rule="evenodd" clip-rule="evenodd" d="M68.1195 82.4444C68.2648 82.4444 68.3789 82.3407 68.3789 82.2086C68.3789 82.0765 68.2648 81.9728 68.1195 81.9728C67.9742 81.9728 67.8601 82.0765 67.8601 82.2086C67.8601 82.3407 67.9742 82.4444 68.1195 82.4444Z" fill="#E8A611"/>
<path fill-rule="evenodd" clip-rule="evenodd" d="M64.7265 100.999L61.9873 99.5558L61.9769 79.0673L64.5501 78.1618H64.9029L64.7369 77.926L64.7265 100.999Z" fill="#E5E5E5"/>
<path fill-rule="evenodd" clip-rule="evenodd" d="M45.7593 91.019L43.02 89.6229V69.1627L45.5829 68.2572H45.9357L45.78 68.0214L45.7593 91.019Z" fill="#E5E5E5"/>
<path fill-rule="evenodd" clip-rule="evenodd" d="M67.4451 99.5653L64.7266 100.999V76.7374L67.4554 77.8788L67.4451 99.5653Z" fill="#7F7F7F"/>
<path fill-rule="evenodd" clip-rule="evenodd" d="M43.02 73.9075V69.1627L45.5829 68.2572H45.9357L45.78 68.0214L45.7696 75.3508L43.02 73.9075Z" fill="#666666"/>
<path fill-rule="evenodd" clip-rule="evenodd" d="M61.9769 83.8593V79.0108L64.5501 78.1052H64.9029L64.7369 77.8599V85.3026L61.9769 83.8593Z" fill="#666666"/>
<path fill-rule="evenodd" clip-rule="evenodd" d="M81.0064 70.5211L63.3984 81.435L36.7114 67.4365L54.3298 56.5131L81.0064 70.5211Z" fill="#0B573C"/>
<path fill-rule="evenodd" clip-rule="evenodd" d="M36.7114 67.4365L63.3984 81.4351V83.0764L36.7114 69.0684V67.4365Z" fill="#E5E5E5"/>
<path fill-rule="evenodd" clip-rule="evenodd" d="M81.0063 70.5211L63.3983 81.435V83.0764L80.9959 72.1813L81.0063 70.5211Z" fill="#B2B2B2"/>
<path fill-rule="evenodd" clip-rule="evenodd" d="M80.031 70.0117L62.5164 80.9822L62.2466 80.8407L79.7612 69.8702L80.031 70.0117Z" fill="#127351"/>
<path fill-rule="evenodd" clip-rule="evenodd" d="M80.3008 70.1532L62.7861 81.1237L62.5164 80.9822L80.031 70.0117L80.3008 70.1532Z" fill="#033624"/>
<path fill-rule="evenodd" clip-rule="evenodd" d="M75.1024 67.4271L57.5982 78.3976L57.3284 78.2562L74.843 67.2856L75.1024 67.4271Z" fill="#127351"/>
<path fill-rule="evenodd" clip-rule="evenodd" d="M75.3825 67.5686L57.8679 78.5391L57.5981 78.3976L75.1024 67.4271L75.3825 67.5686Z" fill="#033624"/>
<path fill-rule="evenodd" clip-rule="evenodd" d="M70.1842 64.8424L52.6799 75.813L52.4102 75.6715L69.9144 64.7009L70.1842 64.8424Z" fill="#127351"/>
<path fill-rule="evenodd" clip-rule="evenodd" d="M70.4539 64.9839L52.9497 75.9545L52.6799 75.813L70.1842 64.8424L70.4539 64.9839Z" fill="#033624"/>
<path fill-rule="evenodd" clip-rule="evenodd" d="M65.2661 62.2578L47.7514 73.2283L47.4817 73.0868L64.9963 62.1163L65.2661 62.2578Z" fill="#127351"/>
<path fill-rule="evenodd" clip-rule="evenodd" d="M65.5359 62.3993L48.0212 73.3698L47.7515 73.2283L65.2661 62.2578L65.5359 62.3993Z" fill="#033624"/>
<path fill-rule="evenodd" clip-rule="evenodd" d="M60.3375 59.6731L42.8333 70.6437L42.5635 70.5022L60.0677 59.5316L60.3375 59.6731Z" fill="#127351"/>
<path fill-rule="evenodd" clip-rule="evenodd" d="M60.6073 59.8146L43.103 70.7852L42.8333 70.6437L60.3375 59.6731L60.6073 59.8146Z" fill="#033624"/>
<path fill-rule="evenodd" clip-rule="evenodd" d="M55.4193 57.0885L37.9047 68.0591L37.6349 67.9176L55.1495 56.947L55.4193 57.0885Z" fill="#127351"/>
<path fill-rule="evenodd" clip-rule="evenodd" d="M55.6891 57.23L38.1744 68.2006L37.9047 68.0591L55.4193 57.0885L55.6891 57.23Z" fill="#033624"/>
<path fill-rule="evenodd" clip-rule="evenodd" d="M98.5521 61.3522L34.325 27.6576V25.4408L98.5521 59.06V61.3522Z" fill="#E5E5E5"/>
<path fill-rule="evenodd" clip-rule="evenodd" d="M137.773 40.826V38.7885L98.5521 59.0599V61.3521L137.773 40.826Z" fill="#B2B2B2"/>
<path fill-rule="evenodd" clip-rule="evenodd" d="M99.1539 22.875L98.5625 59.1731L34.3042 25.4408L76.7107 11.0837L99.1539 22.875Z" fill="#0B573C"/>
<path fill-rule="evenodd" clip-rule="evenodd" d="M99.1539 22.875L98.5625 59.1732L137.825 38.7602L99.1539 22.875Z" fill="#05402B"/>
<path fill-rule="evenodd" clip-rule="evenodd" d="M76.7315 11.1498L73.3385 4.93347L137.825 38.7602L99.1539 22.875L76.7315 11.1498Z" fill="#033624"/>
<path fill-rule="evenodd" clip-rule="evenodd" d="M73.3385 4.93347L34.3042 25.4408L76.7315 11.1498L73.3385 4.93347Z" fill="#05402B"/>
<path fill-rule="evenodd" clip-rule="evenodd" d="M99.4859 6.00884L93.0321 9.4047L89.7014 7.65017L96.0204 4.21655L99.4859 6.00884Z" fill="#D0541B"/>
<path fill-rule="evenodd" clip-rule="evenodd" d="M100.129 19.7056L92.835 18.4227L92.8453 9.65942L100.129 5.82019V19.7056Z" fill="#982724"/>
<path fill-rule="evenodd" clip-rule="evenodd" d="M100.617 5.12216L92.6689 9.30097L88.5808 7.1408L96.3524 2.92426L100.617 5.12216Z" fill="#E5E5E5"/>
<path fill-rule="evenodd" clip-rule="evenodd" d="M98.8841 5.18814L92.9283 8.3199L90.3966 6.98984L96.2279 3.82037L98.8841 5.18814Z" fill="#666666"/>
<path fill-rule="evenodd" clip-rule="evenodd" d="M96.2383 6.57478V3.82977L98.8841 5.18813L96.2383 6.57478Z" fill="#7F7F7F"/>
<path d="M99.5171 5.17872C99.4341 5.17872 99.3718 5.12211 99.3718 5.04665V2.87707C99.3718 2.80161 99.4341 2.745 99.5171 2.745C99.6001 2.745 99.6624 2.80161 99.6624 2.87707V5.04665C99.6624 5.12211 99.6001 5.17872 99.5171 5.17872Z" fill="#1A1D1F"/>
<path d="M92.8765 8.81044C92.7935 8.81044 92.7312 8.75382 92.7312 8.67836V6.50878C92.7312 6.43332 92.7935 6.37671 92.8765 6.37671C92.9595 6.37671 93.0217 6.43332 93.0217 6.50878V8.67836C93.0217 8.75382 92.9595 8.81044 92.8765 8.81044Z" fill="#1A1D1F"/>
<path d="M89.5769 7.28227C89.4939 7.28227 89.4316 7.22569 89.4316 7.15022V4.98062C89.4316 4.90515 89.4939 4.84857 89.5769 4.84857C89.6599 4.84857 89.7222 4.90515 89.7222 4.98062V7.15022C89.7222 7.22569 89.6599 7.28227 89.5769 7.28227Z" fill="#1A1D1F"/>
<path fill-rule="evenodd" clip-rule="evenodd" d="M92.7415 2.35826L92.5962 7.24457L101.271 2.69786L95.6882 0.801819L92.7415 2.35826Z" fill="#05402B"/>
<path fill-rule="evenodd" clip-rule="evenodd" d="M92.7416 2.35828L92.5963 7.24459L87.4395 4.56562L92.7416 2.35828Z" fill="#0B573C"/>
<path fill-rule="evenodd" clip-rule="evenodd" d="M95.6883 0.811252L96.1345 0L87.4395 4.56559L92.7416 2.35825L95.6883 0.811252Z" fill="#05402B"/>
<path fill-rule="evenodd" clip-rule="evenodd" d="M96.1345 0L101.271 2.69785L95.6884 0.811252L96.1345 0Z" fill="#033624"/>
<path d="M98.7076 50.6363L94.0073 56.7866L93.7583 56.6545L98.7076 50.1741V50.6363Z" fill="#127351"/>
<path d="M98.6972 51.0985L94.2563 56.9092L94.0073 56.7866L98.7076 50.6363L98.6972 51.0985Z" fill="#033624"/>
<path fill-rule="evenodd" clip-rule="evenodd" d="M98.8426 42.2786L89.5458 54.4378L89.2968 54.3151L98.8426 41.8164V42.2786Z" fill="#127351"/>
<path fill-rule="evenodd" clip-rule="evenodd" d="M98.8323 42.7314L89.7948 54.5698L89.5458 54.4378L98.8427 42.2786L98.8323 42.7314Z" fill="#033624"/>
<path fill-rule="evenodd" clip-rule="evenodd" d="M98.9671 33.9116L85.0841 52.0984L84.8351 51.9664L98.9775 33.4588L98.9671 33.9116Z" fill="#127351"/>
<path fill-rule="evenodd" clip-rule="evenodd" d="M98.9671 34.3738L85.3331 52.2305L85.0841 52.0984L98.9671 33.9116V34.3738Z" fill="#033624"/>
<path fill-rule="evenodd" clip-rule="evenodd" d="M99.1021 25.554L80.6226 49.759L80.3735 49.627L99.1125 25.0917L99.1021 25.554Z" fill="#127351"/>
<path fill-rule="evenodd" clip-rule="evenodd" d="M99.1021 26.0162L80.8716 49.8816L80.6226 49.759L99.1021 25.554V26.0162Z" fill="#033624"/>
<path fill-rule="evenodd" clip-rule="evenodd" d="M96.1241 21.2808L76.1607 47.4196L75.9221 47.2875L95.8751 21.1487L96.1241 21.2808Z" fill="#127351"/>
<path fill-rule="evenodd" clip-rule="evenodd" d="M96.3627 21.4128L76.4098 47.5422L76.1608 47.4196L96.1241 21.2808L96.3627 21.4128Z" fill="#033624"/>
<path fill-rule="evenodd" clip-rule="evenodd" d="M91.6624 18.9414L71.6991 45.0708L71.4604 44.9482L91.4134 18.8093L91.6624 18.9414Z" fill="#127351"/>
<path fill-rule="evenodd" clip-rule="evenodd" d="M91.9011 19.064L71.9481 45.2028L71.6991 45.0708L91.6624 18.9414L91.9011 19.064Z" fill="#033624"/>
<path fill-rule="evenodd" clip-rule="evenodd" d="M87.2009 16.5926L67.2375 42.7314L66.9989 42.5993L86.9518 16.47L87.2009 16.5926Z" fill="#127351"/>
<path fill-rule="evenodd" clip-rule="evenodd" d="M87.4499 16.7246L67.4866 42.8634L67.2375 42.7314L87.2009 16.5926L87.4499 16.7246Z" fill="#033624"/>
<path fill-rule="evenodd" clip-rule="evenodd" d="M82.7391 14.2532L62.7758 40.392L62.5371 40.26L82.5005 14.1212L82.7391 14.2532Z" fill="#127351"/>
<path fill-rule="evenodd" clip-rule="evenodd" d="M82.9881 14.3759L63.0248 40.5147L62.7758 40.392L82.7391 14.2532L82.9881 14.3759Z" fill="#033624"/>
<path fill-rule="evenodd" clip-rule="evenodd" d="M78.2775 11.9044L58.3142 38.0432L58.0756 37.9206L78.0389 11.7818L78.2775 11.9044Z" fill="#127351"/>
<path fill-rule="evenodd" clip-rule="evenodd" d="M78.5265 12.0365L58.5632 38.1753L58.3142 38.0432L78.2775 11.9044L78.5265 12.0365Z" fill="#033624"/>
<path fill-rule="evenodd" clip-rule="evenodd" d="M71.253 12.9326L53.8525 35.7038L53.6139 35.5812L70.7861 13.0835L71.253 12.9326Z" fill="#127351"/>
<path fill-rule="evenodd" clip-rule="evenodd" d="M71.7095 12.7722L54.1016 35.8359L53.8525 35.7038L71.2426 12.9326L71.7095 12.7722Z" fill="#033624"/>
<path fill-rule="evenodd" clip-rule="evenodd" d="M62.8174 15.7908L49.3909 33.3645L49.1522 33.2324L62.3504 15.9418L62.8174 15.7908Z" fill="#127351"/>
<path fill-rule="evenodd" clip-rule="evenodd" d="M63.2739 15.6304L49.6399 33.4871L49.3909 33.3645L62.8174 15.7908L63.2739 15.6304Z" fill="#033624"/>
<path fill-rule="evenodd" clip-rule="evenodd" d="M54.3921 18.6396L44.9292 31.0251L44.6906 30.893L53.9251 18.8L54.3921 18.6396Z" fill="#127351"/>
<path fill-rule="evenodd" clip-rule="evenodd" d="M54.8486 18.4886L45.1782 31.1477L44.9292 31.0251L54.3817 18.6396L54.8486 18.4886Z" fill="#033624"/>
<path d="M45.9564 21.4977L40.4675 28.6763L40.2289 28.5536L45.4895 21.6581L45.9564 21.4977Z" fill="#127351"/>
<path d="M46.413 21.3468L40.7165 28.8083L40.4675 28.6763L45.9564 21.4977L46.413 21.3468Z" fill="#033624"/>
<path fill-rule="evenodd" clip-rule="evenodd" d="M93.0113 23.1863L77.0635 44.2313L77.022 34.0059L93.0113 23.1863Z" fill="#7F7F7F"/>
<path fill-rule="evenodd" clip-rule="evenodd" d="M64.353 26.9029L77.0221 33.6097L77.0636 44.2313L64.3323 37.449L64.353 26.9029Z" fill="#CCCCCC"/>
<path fill-rule="evenodd" clip-rule="evenodd" d="M92.835 18.4226L89.0685 16.4417L89.0581 7.67847L92.8454 9.6594L92.835 18.4226Z" fill="#B32D22"/>
<path fill-rule="evenodd" clip-rule="evenodd" d="M92.6793 11.895L88.5912 9.74432L88.5808 7.14081L92.6897 9.29153L92.6793 11.895Z" fill="#CCCCCC"/>
<path fill-rule="evenodd" clip-rule="evenodd" d="M100.617 7.72562L92.6793 11.895L92.6897 9.2915L100.617 5.12213V7.72562Z" fill="#7F7F7F"/>
<path fill-rule="evenodd" clip-rule="evenodd" d="M98.6974 51.3249L102.962 56.8903L103.201 56.7677L98.6974 50.8815V51.3249Z" fill="#033624"/>
<path fill-rule="evenodd" clip-rule="evenodd" d="M98.687 51.7588L102.713 57.0224L102.962 56.8903L98.6974 51.3249L98.687 51.7588Z" fill="#0B573C"/>
<path fill-rule="evenodd" clip-rule="evenodd" d="M98.8219 43.3068L107.434 54.5698L107.673 54.4378L98.8323 42.8729L98.8219 43.3068Z" fill="#033624"/>
<path fill-rule="evenodd" clip-rule="evenodd" d="M98.8115 43.7502L107.185 54.6924L107.434 54.5698L98.8219 43.3068L98.8115 43.7502Z" fill="#0B573C"/>
<path fill-rule="evenodd" clip-rule="evenodd" d="M98.9464 35.2794L111.906 52.2398L112.145 52.1078L98.9568 34.836L98.9464 35.2794Z" fill="#033624"/>
<path fill-rule="evenodd" clip-rule="evenodd" d="M98.9464 35.7227L111.657 52.3719L111.906 52.2399L98.9464 35.2794V35.7227Z" fill="#0B573C"/>
<path fill-rule="evenodd" clip-rule="evenodd" d="M99.0813 27.2613L116.378 49.9099L116.627 49.7873L99.0917 26.8274L99.0813 27.2613Z" fill="#033624"/>
<path fill-rule="evenodd" clip-rule="evenodd" d="M99.0709 27.7047L116.129 50.042L116.378 49.9099L99.0813 27.2614L99.0709 27.7047Z" fill="#0B573C"/>
<path fill-rule="evenodd" clip-rule="evenodd" d="M103.263 24.5635L120.85 47.5894L121.099 47.4573L103.761 24.771L103.263 24.5635Z" fill="#033624"/>
<path fill-rule="evenodd" clip-rule="evenodd" d="M102.765 24.356L120.601 47.712L120.85 47.5894L103.263 24.5635L102.765 24.356Z" fill="#0B573C"/>
<path fill-rule="evenodd" clip-rule="evenodd" d="M112.373 28.3084L125.322 45.2595L125.571 45.1369L112.871 28.5159L112.373 28.3084Z" fill="#033624"/>
<path fill-rule="evenodd" clip-rule="evenodd" d="M111.875 28.1008L125.083 45.3915L125.322 45.2594L112.373 28.3084L111.875 28.1008Z" fill="#0B573C"/>
<path fill-rule="evenodd" clip-rule="evenodd" d="M121.483 32.0438L129.794 42.9295L130.043 42.8069L121.981 32.2514L121.483 32.0438Z" fill="#033624"/>
<path fill-rule="evenodd" clip-rule="evenodd" d="M120.985 31.8458L129.555 43.0616L129.794 42.9295L121.483 32.0438L120.985 31.8458Z" fill="#0B573C"/>
<path fill-rule="evenodd" clip-rule="evenodd" d="M130.593 35.7888L134.266 40.609L134.515 40.477L131.091 35.9963L130.593 35.7888Z" fill="#033624"/>
<path fill-rule="evenodd" clip-rule="evenodd" d="M130.095 35.5812L134.027 40.7316L134.266 40.609L130.593 35.7887L130.095 35.5812Z" fill="#0B573C"/>
<path fill-rule="evenodd" clip-rule="evenodd" d="M77.0324 35.7416L64.353 29.0819V26.9501L64.3842 26.9218L77.0221 33.6097L77.0324 35.7416Z" fill="#666666"/>
<path fill-rule="evenodd" clip-rule="evenodd" d="M95.3875 20.9035L77.4475 34.1192L62.724 26.3935L80.664 13.1779L95.3875 20.9035Z" fill="#127351"/>
<path fill-rule="evenodd" clip-rule="evenodd" d="M95.3875 20.9035L77.4475 34.1191V35.0247L93.9971 22.8278L95.3875 20.9035Z" fill="#033624"/>
<path fill-rule="evenodd" clip-rule="evenodd" d="M92.918 19.6017L74.978 32.8173L74.7083 32.6853L92.6483 19.4697L92.918 19.6017Z" fill="#139165"/>
<path fill-rule="evenodd" clip-rule="evenodd" d="M93.1774 19.7433L75.2374 32.9589L74.978 32.8174L92.918 19.6017L93.1774 19.7433Z" fill="#033624"/>
<path fill-rule="evenodd" clip-rule="evenodd" d="M88.1555 17.102L70.2155 30.3176L69.9457 30.1855L87.8857 16.9699L88.1555 17.102Z" fill="#139165"/>
<path fill-rule="evenodd" clip-rule="evenodd" d="M88.4148 17.2434L70.4749 30.459L70.2155 30.3176L88.1554 17.1019L88.4148 17.2434Z" fill="#033624"/>
<path fill-rule="evenodd" clip-rule="evenodd" d="M83.3929 14.6023L65.4529 27.8273L65.1831 27.6858L83.1335 14.4702L83.3929 14.6023Z" fill="#139165"/>
<path fill-rule="evenodd" clip-rule="evenodd" d="M83.6523 14.7437L65.7123 27.9594L65.4529 27.8179L83.3929 14.6022L83.6523 14.7437Z" fill="#033624"/>
<path fill-rule="evenodd" clip-rule="evenodd" d="M70.2155 30.3176L69.9457 30.1855L70.2155 30.3176Z" fill="#127351"/>
<path fill-rule="evenodd" clip-rule="evenodd" d="M65.7123 27.9594L65.4529 27.8179L65.7123 27.9594Z" fill="#033624"/>
<path fill-rule="evenodd" clip-rule="evenodd" d="M73.3696 40.9769V32.4967C71.6057 31.5817 69.8314 30.6666 68.0571 29.7516V38.213C69.8314 39.1375 71.5953 40.0525 73.3696 40.9769Z" fill="#7F7F7F"/>
<path fill-rule="evenodd" clip-rule="evenodd" d="M73.3696 40.9769V35.4398C71.5953 36.3548 69.8314 37.2698 68.0571 38.1848V38.2131C69.8314 39.1375 71.5953 40.0525 73.3696 40.9769Z" fill="#E5E5E5"/>
<path fill-rule="evenodd" clip-rule="evenodd" d="M73.3696 40.4676V32.4967C71.7717 31.6666 70.1634 30.8365 68.5552 30.0063V37.9584C70.1634 38.7979 71.7613 39.628 73.3696 40.4676Z" fill="white"/>
<path fill-rule="evenodd" clip-rule="evenodd" d="M73.3696 32.4967C71.8962 31.7326 70.4125 30.9685 68.9391 30.2045V37.6471C70.4228 38.4206 71.8962 39.1847 73.3696 39.9582V32.4967Z" fill="#6CB5EF"/>
<path fill-rule="evenodd" clip-rule="evenodd" d="M73.3696 33.4211L68.9391 31.0912V30.2045C70.4228 30.9685 71.8962 31.7326 73.3696 32.4967V33.4211Z" fill="#5283AA"/>
<path fill-rule="evenodd" clip-rule="evenodd" d="M71.6161 31.5911V39.562L71.2737 39.3827V31.4119L71.6161 31.5911Z" fill="white"/>
<path fill-rule="evenodd" clip-rule="evenodd" d="M73.3385 35.968C71.8651 35.2039 70.3813 34.4399 68.908 33.6758V34.0154C70.3813 34.7889 71.8651 35.5529 73.3385 36.3264V35.9774V35.968Z" fill="white"/>
<path fill-rule="evenodd" clip-rule="evenodd" d="M62.724 26.3935L77.4475 34.1191V35.0247L62.724 27.2991V26.3935Z" fill="#05402B"/>
<path fill-rule="evenodd" clip-rule="evenodd" d="M19.3524 77.2751C17.0282 77.2751 15.1294 78.1901 15.1294 79.3126C15.1294 80.4351 17.0178 81.3501 19.3524 81.3501C21.687 81.3501 23.5754 80.4351 23.5754 79.3126C23.5754 78.1901 21.687 77.2751 19.3524 77.2751Z" fill="#547325"/>
<path d="M19.674 76.5205C19.674 76.3069 19.4836 76.1337 19.2486 76.1337C19.0137 76.1337 18.8232 76.3069 18.8232 76.5205V79.0768C18.8232 79.2904 19.0137 79.4636 19.2486 79.4636C19.4836 79.4636 19.674 79.2904 19.674 79.0768V76.5205Z" fill="#5D3627"/>
<path fill-rule="evenodd" clip-rule="evenodd" d="M18.0346 75.8885C18.2006 76.6903 18.2318 77.4921 18.9269 78.2845C19.0826 78.4637 19.3524 79.4164 18.8232 78.8033C17.9101 77.7373 17.879 76.7374 17.6403 75.9168C17.4951 75.4074 17.9309 75.398 18.0242 75.8885H18.0346Z" fill="#5D3627"/>
<path fill-rule="evenodd" clip-rule="evenodd" d="M20.4833 75.4546C20.3173 76.2564 20.2861 77.0487 19.591 77.8505C19.4353 78.0297 19.1656 78.9825 19.6947 78.3788C20.6078 77.3129 20.6389 76.3129 20.8776 75.4923C21.0228 74.9829 20.587 74.9735 20.4937 75.464L20.4833 75.4546Z" fill="#5D3627"/>
<path fill-rule="evenodd" clip-rule="evenodd" d="M19.2901 56.664C22.6104 56.664 25.6817 77.143 19.2901 77.143C12.2967 77.143 15.9698 56.664 19.2901 56.664Z" fill="#2E450C"/>
<path fill-rule="evenodd" clip-rule="evenodd" d="M19.674 57.3526C22.3199 57.3526 24.7686 75.2281 19.674 75.2281C14.1021 75.2281 17.0281 57.3526 19.674 57.3526Z" fill="#3A5413"/>
<path fill-rule="evenodd" clip-rule="evenodd" d="M19.8711 58.0223C21.1369 58.0223 22.8801 68.6062 20.4521 68.6062C17.7959 68.6062 18.6052 58.0223 19.8711 58.0223Z" fill="#456319"/>
<path fill-rule="evenodd" clip-rule="evenodd" d="M25.827 80.2748C23.5028 80.2748 21.604 81.1898 21.604 82.3123C21.604 83.4348 23.4924 84.3498 25.827 84.3498C28.1616 84.3498 30.05 83.4348 30.05 82.3123C30.05 81.1898 28.1616 80.2748 25.827 80.2748Z" fill="#547325"/>
<path d="M25.7337 79.1429C25.9724 79.1429 26.1592 79.3127 26.1592 79.5296V82.086C26.1592 82.3029 25.9724 82.4727 25.7337 82.4727C25.4951 82.4727 25.3083 82.3029 25.3083 82.086V79.5296C25.3083 79.3127 25.4951 79.1429 25.7337 79.1429Z" fill="#5D3627"/>
<path fill-rule="evenodd" clip-rule="evenodd" d="M24.5094 78.8976C24.6754 79.6994 24.7065 80.4918 25.4017 81.2936C25.5574 81.4728 25.8271 82.4256 25.2979 81.8124C24.3849 80.7465 24.3537 79.7466 24.1151 78.9259C23.9698 78.4165 24.4056 78.4071 24.499 78.8976H24.5094Z" fill="#5D3627"/>
<path fill-rule="evenodd" clip-rule="evenodd" d="M26.958 78.4637C26.792 79.2655 26.7609 80.0579 26.0657 80.8597C25.9101 81.0389 25.6403 81.9917 26.1695 81.3785C27.0825 80.3126 27.1137 79.3127 27.3523 78.492C27.4976 77.9826 27.0618 77.9732 26.9684 78.4637H26.958Z" fill="#5D3627"/>
<path fill-rule="evenodd" clip-rule="evenodd" d="M25.7648 59.6732C29.0851 59.6732 32.1564 80.1522 25.7648 80.1522C18.7714 80.1522 22.4445 59.6732 25.7648 59.6732Z" fill="#2E450C"/>
<path fill-rule="evenodd" clip-rule="evenodd" d="M26.1591 60.3618C28.805 60.3618 31.2537 78.2373 26.1591 78.2373C20.5872 78.2373 23.5132 60.3618 26.1591 60.3618Z" fill="#3A5413"/>
<path fill-rule="evenodd" clip-rule="evenodd" d="M26.3459 61.0315C27.6118 61.0315 29.355 71.6153 26.927 71.6153C24.2707 71.6153 25.0801 61.0315 26.3459 61.0315Z" fill="#456319"/>
<path fill-rule="evenodd" clip-rule="evenodd" d="M87.3148 111.564C84.9906 111.564 83.0918 112.479 83.0918 113.602C83.0918 114.724 84.9802 115.639 87.3148 115.639C89.6494 115.639 91.5378 114.724 91.5378 113.602C91.5378 112.479 89.6494 111.564 87.3148 111.564Z" fill="#547325"/>
<path d="M87.6261 110.809C87.6261 110.596 87.4356 110.423 87.2007 110.423C86.9657 110.423 86.7753 110.596 86.7753 110.809V113.366C86.7753 113.579 86.9657 113.752 87.2007 113.752C87.4356 113.752 87.6261 113.579 87.6261 113.366V110.809Z" fill="#5D3627"/>
<path fill-rule="evenodd" clip-rule="evenodd" d="M85.9867 110.177C86.1527 110.979 86.1838 111.772 86.879 112.573C87.0346 112.753 87.3044 113.705 86.7752 113.092C85.8622 112.026 85.831 111.026 85.5924 110.206C85.4471 109.696 85.8829 109.687 85.9763 110.177H85.9867Z" fill="#5D3627"/>
<path fill-rule="evenodd" clip-rule="evenodd" d="M88.4353 109.744C88.2693 110.545 88.2382 111.338 87.543 112.139C87.3873 112.319 87.1176 113.271 87.6468 112.658C88.5598 111.592 88.5909 110.592 88.8296 109.772C88.9749 109.262 88.5391 109.253 88.4457 109.744H88.4353Z" fill="#5D3627"/>
<path fill-rule="evenodd" clip-rule="evenodd" d="M87.2421 90.9624C90.5624 90.9624 93.6337 111.441 87.2421 111.441C80.2487 111.441 83.9218 90.9624 87.2421 90.9624Z" fill="#2E450C"/>
<path fill-rule="evenodd" clip-rule="evenodd" d="M87.6364 91.6416C90.2823 91.6416 92.731 109.517 87.6364 109.517C82.0645 109.517 84.9905 91.6416 87.6364 91.6416Z" fill="#3A5413"/>
<path fill-rule="evenodd" clip-rule="evenodd" d="M87.8335 92.3113C89.0993 92.3113 90.8425 102.895 88.4145 102.895C85.7583 102.895 86.5676 92.3113 87.8335 92.3113Z" fill="#456319"/>
<path fill-rule="evenodd" clip-rule="evenodd" d="M93.7894 114.573C91.4652 114.573 89.5664 115.488 89.5664 116.611C89.5664 117.733 91.4548 118.648 93.7894 118.648C96.124 118.648 98.0124 117.733 98.0124 116.611C98.0124 115.488 96.124 114.573 93.7894 114.573Z" fill="#547325"/>
<path d="M94.1112 113.818C94.1112 113.605 93.9207 113.432 93.6858 113.432C93.4508 113.432 93.2604 113.605 93.2604 113.818V116.375C93.2604 116.588 93.4508 116.762 93.6858 116.762C93.9207 116.762 94.1112 116.588 94.1112 116.375V113.818Z" fill="#5D3627"/>
<path fill-rule="evenodd" clip-rule="evenodd" d="M92.4614 113.186C92.6274 113.988 92.6585 114.79 93.3537 115.582C93.5093 115.762 93.7791 116.714 93.2499 116.101C92.3369 115.035 92.3057 114.035 92.0671 113.215C91.9218 112.705 92.3576 112.696 92.451 113.186H92.4614Z" fill="#5D3627"/>
<path fill-rule="evenodd" clip-rule="evenodd" d="M94.9204 112.753C94.7544 113.554 94.7233 114.347 94.0281 115.149C93.8725 115.328 93.6027 116.281 94.1319 115.667C95.0449 114.601 95.0761 113.602 95.3147 112.781C95.46 112.271 95.0242 112.262 94.9308 112.753H94.9204Z" fill="#5D3627"/>
<path fill-rule="evenodd" clip-rule="evenodd" d="M93.7272 93.962C97.0475 93.962 100.119 114.441 93.7272 114.441C86.7338 114.441 90.4069 93.962 93.7272 93.962Z" fill="#2E450C"/>
<path fill-rule="evenodd" clip-rule="evenodd" d="M94.1111 94.6506C96.757 94.6506 99.2057 112.526 94.1111 112.526C88.5393 112.526 91.4653 94.6506 94.1111 94.6506Z" fill="#3A5413"/>
<path fill-rule="evenodd" clip-rule="evenodd" d="M94.3082 95.3204C95.5741 95.3204 97.3172 105.904 94.8893 105.904C92.233 105.904 93.0423 95.3204 94.3082 95.3204Z" fill="#456319"/>
<path d="M147.091 86.1421C147.091 85.9285 146.9 85.7553 146.665 85.7553C146.43 85.7553 146.24 85.9285 146.24 86.1421V88.6984C146.24 88.912 146.43 89.0852 146.665 89.0852C146.9 89.0852 147.091 88.912 147.091 88.6984V86.1421Z" fill="#5D3627"/>
<path fill-rule="evenodd" clip-rule="evenodd" d="M145.451 85.5101C145.617 86.3119 145.649 87.1137 146.344 87.9061C146.499 88.0853 146.769 89.0381 146.24 88.4249C145.327 87.359 145.296 86.3591 145.057 85.5384C144.912 85.029 145.348 85.0196 145.441 85.5101H145.451Z" fill="#5D3627"/>
<path fill-rule="evenodd" clip-rule="evenodd" d="M147.9 85.0762C147.734 85.878 147.703 86.6703 147.008 87.4721C146.852 87.6514 146.582 88.6041 147.111 87.9909C148.025 86.925 148.056 85.9251 148.294 85.1045C148.44 84.5951 148.004 84.5856 147.91 85.0762H147.9Z" fill="#5D3627"/>
<path fill-rule="evenodd" clip-rule="evenodd" d="M146.707 66.2856C150.027 66.2856 153.098 86.7647 146.707 86.7647C139.713 86.7647 143.387 66.2856 146.707 66.2856Z" fill="#2E450C"/>
<path fill-rule="evenodd" clip-rule="evenodd" d="M147.091 66.9742C149.737 66.9742 152.185 84.8498 147.091 84.8498C141.519 84.8498 144.445 66.9742 147.091 66.9742Z" fill="#3A5413"/>
<path fill-rule="evenodd" clip-rule="evenodd" d="M147.288 67.644C148.554 67.644 150.297 78.2278 147.869 78.2278C145.213 78.2278 146.022 67.644 147.288 67.644Z" fill="#456319"/>
</g>
</svg>
