<svg viewBox="0 0 272 136" fill="none" xmlns="http://www.w3.org/2000/svg">
<path d="M267.815 136C270.127 136 272.007 134.126 271.936 131.816C271.43 115.383 267.948 99.1656 261.648 83.955C254.813 67.4547 244.795 52.4622 232.167 39.8335C219.538 27.2047 204.545 17.187 188.045 10.3524C171.545 3.51773 153.86 -1.42315e-05 136 -1.18895e-05C118.14 -9.54747e-06 100.455 3.51774 83.955 10.3524C67.4548 17.187 52.4622 27.2047 39.8335 39.8335C27.2047 52.4623 17.187 67.4548 10.3524 83.9551C4.05192 99.1657 0.570143 115.383 0.0643615 131.816C-0.00673699 134.126 1.8735 136 4.1846 136L24.3754 136C26.6865 136 28.5515 134.126 28.6415 131.816C29.1356 119.135 31.8733 106.63 36.7384 94.8845C42.1377 81.8493 50.0517 70.0052 60.0284 60.0284C70.0052 50.0517 81.8493 42.1377 94.8845 36.7384C107.92 31.339 121.891 28.56 136 28.56C150.109 28.56 164.08 31.339 177.116 36.7384C190.151 42.1377 201.995 50.0517 211.972 60.0284C221.948 70.0052 229.862 81.8492 235.262 94.8845C240.127 106.63 242.864 119.135 243.359 131.816C243.449 134.126 245.314 136 247.625 136L267.815 136Z" fill="url(#paint0_linear_63_94)"/>
<defs>
<linearGradient id="paint0_linear_63_94" x1="229.743" y1="61.2" x2="37.4" y2="61.2" gradientUnits="userSpaceOnUse">
<stop stop-color="#FF3E3E"/>
<stop offset="1" stop-color="#FF8080"/>
</linearGradient>
</defs>
</svg>
