<svg width="32" height="32" viewBox="0 0 32 32" fill="none" xmlns="http://www.w3.org/2000/svg">
<path d="M7.11111 24C6.7963 24 6.53241 23.8722 6.31944 23.6167C6.10648 23.3611 6 23.0444 6 22.6667C6 22.2889 6.10648 21.9722 6.31944 21.7167C6.53241 21.4611 6.7963 21.3333 7.11111 21.3333H24.8889C25.2037 21.3333 25.4676 21.4611 25.6806 21.7167C25.8935 21.9722 26 22.2889 26 22.6667C26 23.0444 25.8935 23.3611 25.6806 23.6167C25.4676 23.8722 25.2037 24 24.8889 24H7.11111ZM7.11111 17.3333C6.7963 17.3333 6.53241 17.2056 6.31944 16.95C6.10648 16.6944 6 16.3778 6 16C6 15.6222 6.10648 15.3056 6.31944 15.05C6.53241 14.7944 6.7963 14.6667 7.11111 14.6667H24.8889C25.2037 14.6667 25.4676 14.7944 25.6806 15.05C25.8935 15.3056 26 15.6222 26 16C26 16.3778 25.8935 16.6944 25.6806 16.95C25.4676 17.2056 25.2037 17.3333 24.8889 17.3333H7.11111ZM7.11111 10.6667C6.7963 10.6667 6.53241 10.5389 6.31944 10.2833C6.10648 10.0278 6 9.71111 6 9.33333C6 8.95556 6.10648 8.63889 6.31944 8.38333C6.53241 8.12778 6.7963 8 7.11111 8H24.8889C25.2037 8 25.4676 8.12778 25.6806 8.38333C25.8935 8.63889 26 8.95556 26 9.33333C26 9.71111 25.8935 10.0278 25.6806 10.2833C25.4676 10.5389 25.2037 10.6667 24.8889 10.6667H7.11111Z" fill="white"/>
</svg>
