<svg width="190" height="190" viewBox="0 0 190 190" fill="none" xmlns="http://www.w3.org/2000/svg">
<g clip-path="url(#clip0_2418_22599)">
<path opacity="0.4" d="M94.324 168.648C135.924 168.648 169.648 134.924 169.648 93.324C169.648 51.7237 135.924 18 94.324 18C52.7237 18 19 51.7237 19 93.324C19 134.924 52.7237 168.648 94.324 168.648Z" fill="url(#paint0_linear_2418_22599)"/>
<g filter="url(#filter0_d_2418_22599)">
<mask id="mask0_2418_22599" style="mask-type:alpha" maskUnits="userSpaceOnUse" x="40" y="37" width="111" height="128">
<rect x="38.6548" y="61.8706" width="81.9599" height="110.362" rx="7" transform="rotate(-19.0247 38.6548 61.8706)" fill="#878F99"/>
</mask>
<g mask="url(#mask0_2418_22599)">
<path d="M80.5093 36.2257L30.5617 53.4482C26.9069 54.7084 24.9657 58.6928 26.2259 62.3476L65.7071 176.849C66.9673 180.504 70.9518 182.445 74.6066 181.185L158.833 152.143C162.488 150.883 164.429 146.898 163.169 143.243L135.507 63.0206C134.902 61.2655 133.624 59.8227 131.955 59.0095L85.857 36.5505C84.1881 35.7374 82.2644 35.6206 80.5093 36.2257Z" fill="url(#paint1_linear_2418_22599)"/>
</g>
</g>
<g filter="url(#filter1_d_2418_22599)">
<mask id="mask1_2418_22599" style="mask-type:alpha" maskUnits="userSpaceOnUse" x="51" y="39" width="92" height="118">
<rect x="51.1064" y="39.3486" width="91.3304" height="116.752" rx="8" fill="white"/>
</mask>
<g mask="url(#mask1_2418_22599)">
<path d="M103.591 34.1675H52.3816C48.5156 34.1675 45.3816 37.3015 45.3816 41.1675V160.147C45.3816 164.013 48.5156 167.147 52.3816 167.147H138.839C142.705 167.147 145.839 164.013 145.839 160.147V76.7679C145.839 74.9234 145.111 73.1535 143.813 71.8428L108.565 36.2424C107.251 34.9146 105.46 34.1675 103.591 34.1675Z" fill="url(#paint2_linear_2418_22599)"/>
</g>
</g>
<g filter="url(#filter2_d_2418_22599)">
<mask id="mask2_2418_22599" style="mask-type:alpha" maskUnits="userSpaceOnUse" x="111" y="25" width="88" height="44">
<rect x="199" y="68.7075" width="87.2141" height="43.1753" rx="7" transform="rotate(-180 199 68.7075)" fill="url(#paint3_linear_2418_22599)"/>
</mask>
<g mask="url(#mask2_2418_22599)">
<rect x="142.009" y="69.1216" width="44.5985" height="44.5985" transform="rotate(135 142.009 69.1216)" fill="url(#paint4_linear_2418_22599)"/>
</g>
</g>
<rect x="64.1367" y="55.521" width="35.6455" height="3.45402" rx="1.72701" fill="#CED8E6"/>
<rect x="64.1367" y="89.1973" width="62.1724" height="3.45402" rx="1.72701" fill="#CED8E6"/>
<rect x="64.1941" y="98.9731" width="51.7853" height="2.82465" rx="1.41233" fill="#CED8E6"/>
<rect x="64.1367" y="108.195" width="62.1724" height="3.45402" rx="1.72701" fill="#CED8E6"/>
<rect x="64.1941" y="117.804" width="51.7853" height="3.7662" rx="1.8831" fill="#CED8E6"/>
<rect x="64.1367" y="65.0195" width="18.2372" height="3.45402" rx="1.72701" fill="#CED8E6"/>
<rect x="64.1367" y="134.1" width="18.2372" height="3.45402" rx="1.72701" fill="#CED8E6"/>
<circle cx="136.694" cy="123.454" r="22.5972" fill="url(#paint5_linear_2418_22599)"/>
<path d="M130.103 117.804L143.152 130.853" stroke="white" stroke-width="4" stroke-linecap="round" stroke-linejoin="round"/>
<path d="M143.285 117.804L130.235 130.853" stroke="white" stroke-width="4" stroke-linecap="round" stroke-linejoin="round"/>
</g>
<defs>
<filter id="filter0_d_2418_22599" x="24.5522" y="27.0513" width="141.663" height="159.255" filterUnits="userSpaceOnUse" color-interpolation-filters="sRGB">
<feFlood flood-opacity="0" result="BackgroundImageFix"/>
<feColorMatrix in="SourceAlpha" type="matrix" values="0 0 0 0 0 0 0 0 0 0 0 0 0 0 0 0 0 0 127 0" result="hardAlpha"/>
<feOffset dy="6"/>
<feGaussianBlur stdDeviation="8"/>
<feComposite in2="hardAlpha" operator="out"/>
<feColorMatrix type="matrix" values="0 0 0 0 0.147192 0 0 0 0 0.289593 0 0 0 0 0.42104 0 0 0 0.06 0"/>
<feBlend mode="normal" in2="BackgroundImageFix" result="effect1_dropShadow_2418_22599"/>
<feBlend mode="normal" in="SourceGraphic" in2="effect1_dropShadow_2418_22599" result="shape"/>
</filter>
<filter id="filter1_d_2418_22599" x="45.1064" y="35.3486" width="103.33" height="128.752" filterUnits="userSpaceOnUse" color-interpolation-filters="sRGB">
<feFlood flood-opacity="0" result="BackgroundImageFix"/>
<feColorMatrix in="SourceAlpha" type="matrix" values="0 0 0 0 0 0 0 0 0 0 0 0 0 0 0 0 0 0 127 0" result="hardAlpha"/>
<feOffset dy="2"/>
<feGaussianBlur stdDeviation="3"/>
<feComposite in2="hardAlpha" operator="out"/>
<feColorMatrix type="matrix" values="0 0 0 0 0.396078 0 0 0 0 0.478431 0 0 0 0 0.576471 0 0 0 0.2 0"/>
<feBlend mode="normal" in2="BackgroundImageFix" result="effect1_dropShadow_2418_22599"/>
<feBlend mode="normal" in="SourceGraphic" in2="effect1_dropShadow_2418_22599" result="shape"/>
</filter>
<filter id="filter2_d_2418_22599" x="108.786" y="36.5854" width="40.2227" height="41.1221" filterUnits="userSpaceOnUse" color-interpolation-filters="sRGB">
<feFlood flood-opacity="0" result="BackgroundImageFix"/>
<feColorMatrix in="SourceAlpha" type="matrix" values="0 0 0 0 0 0 0 0 0 0 0 0 0 0 0 0 0 0 127 0" result="hardAlpha"/>
<feOffset dx="2" dy="4"/>
<feGaussianBlur stdDeviation="2.5"/>
<feComposite in2="hardAlpha" operator="out"/>
<feColorMatrix type="matrix" values="0 0 0 0 0.396078 0 0 0 0 0.478431 0 0 0 0 0.576471 0 0 0 0.1 0"/>
<feBlend mode="normal" in2="BackgroundImageFix" result="effect1_dropShadow_2418_22599"/>
<feBlend mode="normal" in="SourceGraphic" in2="effect1_dropShadow_2418_22599" result="shape"/>
</filter>
<linearGradient id="paint0_linear_2418_22599" x1="94.324" y1="-11" x2="94.324" y2="168.648" gradientUnits="userSpaceOnUse">
<stop stop-color="#C4CEEB"/>
<stop offset="1" stop-color="white"/>
</linearGradient>
<linearGradient id="paint1_linear_2418_22599" x1="71.4019" y1="33.6698" x2="118.479" y2="170.2" gradientUnits="userSpaceOnUse">
<stop stop-color="#D5DCEB"/>
<stop offset="1" stop-color="#CBD3E3"/>
</linearGradient>
<linearGradient id="paint2_linear_2418_22599" x1="96.1076" y1="28.8676" x2="96.1076" y2="171.002" gradientUnits="userSpaceOnUse">
<stop stop-color="white"/>
<stop offset="1" stop-color="white"/>
</linearGradient>
<linearGradient id="paint3_linear_2418_22599" x1="243.039" y1="66.9868" x2="243.039" y2="113.134" gradientUnits="userSpaceOnUse">
<stop stop-color="#FBFCFE"/>
<stop offset="1" stop-color="#EDF0F6"/>
</linearGradient>
<linearGradient id="paint4_linear_2418_22599" x1="160.339" y1="71.5512" x2="117.292" y2="125.589" gradientUnits="userSpaceOnUse">
<stop stop-color="#BDCCE2"/>
<stop offset="1" stop-color="#EBF3FF"/>
</linearGradient>
<linearGradient id="paint5_linear_2418_22599" x1="136.694" y1="96.1487" x2="136.694" y2="154.525" gradientUnits="userSpaceOnUse">
<stop stop-color="#FF4F4F"/>
<stop offset="1" stop-color="#FF7676"/>
</linearGradient>
<clipPath id="clip0_2418_22599">
<rect width="190" height="190" fill="white"/>
</clipPath>
</defs>
</svg>
