<svg width="230" height="162" viewBox="0 0 230 162" fill="none" xmlns="http://www.w3.org/2000/svg">
<g clip-path="url(#clip0_2534_22208)">
<circle opacity="0.55" cx="131.393" cy="125.179" r="118.393" fill="url(#paint0_linear_2534_22208)"/>
<circle opacity="0.9" cx="132.462" cy="124.921" r="86.4687" fill="white"/>
<circle opacity="0.9" cx="132.462" cy="126.78" r="62.7244" stroke="url(#paint1_linear_2534_22208)" stroke-dasharray="5 5"/>
<circle cx="132.221" cy="124.379" r="30.5" stroke="url(#paint2_linear_2534_22208)"/>
<path d="M117.817 124.493L127.734 134.078L147.569 114.553" stroke="#2E81F8" stroke-width="3" stroke-linecap="round" stroke-linejoin="round"/>
<circle cx="184.703" cy="102.382" r="20" fill="url(#paint3_linear_2534_22208)"/>
<path d="M181.914 106.311H192.919C193.538 106.311 194.039 105.81 194.039 105.191V97.5525C194.039 96.9339 193.538 96.4324 192.919 96.4324H181.914C181.296 96.4324 180.794 96.9339 180.794 97.5525V105.191C180.794 105.81 181.296 106.311 181.914 106.311Z" stroke="white" stroke-width="1.3" stroke-linecap="round" stroke-linejoin="round"/>
<path d="M180.789 100.185H194.033" stroke="white" stroke-width="1.3" stroke-linecap="round" stroke-linejoin="round"/>
<path d="M180.789 99.6749H178.213C177.597 99.6749 177.093 100.179 177.093 100.795V108.434C177.093 109.05 177.597 109.554 178.213 109.554H189.217C189.833 109.554 190.337 109.05 190.337 108.434V106.311" stroke="white" stroke-width="1.3" stroke-linecap="round" stroke-linejoin="round"/>
<path d="M177.093 103.427H180.789" stroke="white" stroke-width="1.3" stroke-linecap="round" stroke-linejoin="round"/>
<path d="M151.786 66C151.786 77.0457 142.831 86 131.786 86C120.74 86 111.786 77.0457 111.786 66C111.786 54.9543 120.74 46 131.786 46C142.831 46 151.786 54.9543 151.786 66Z" fill="url(#paint4_linear_2534_22208)"/>
<path d="M139.511 64.1917H123.261V61.4012L131.524 57.6875L139.511 61.2762V64.1917Z" stroke="white" stroke-width="1.3" stroke-miterlimit="10"/>
<path d="M133.775 64.1918V71.0916" stroke="white" stroke-width="1.3" stroke-miterlimit="10"/>
<path d="M137.705 71.0916V64.1918" stroke="white" stroke-width="1.3" stroke-miterlimit="10"/>
<path d="M133.775 64.1918V71.0916" stroke="white" stroke-width="1.3" stroke-miterlimit="10"/>
<path d="M137.705 71.0916V64.1918" stroke="white" stroke-width="1.3" stroke-miterlimit="10"/>
<path d="M125.067 64.1918V71.0916" stroke="white" stroke-width="1.3" stroke-miterlimit="10"/>
<path d="M128.997 71.0916V64.1918" stroke="white" stroke-width="1.3" stroke-miterlimit="10"/>
<path d="M125.067 64.1918V71.0916" stroke="white" stroke-width="1.3" stroke-miterlimit="10"/>
<path d="M128.997 71.0916V64.1918" stroke="white" stroke-width="1.3" stroke-miterlimit="10"/>
<path d="M123.261 73.882H139.511V72.9519L138.608 71.0916H124.164L123.261 72.9519V73.882Z" stroke="white" stroke-width="1.3" stroke-miterlimit="10"/>
<circle cx="78.6182" cy="102.382" r="20" fill="url(#paint5_linear_2534_22208)"/>
<path d="M75.3784 110.521V103.277C75.3784 102.831 75.7378 102.471 76.184 102.471H80.2057V110.521" stroke="white" stroke-width="1.3" stroke-miterlimit="10"/>
<path d="M80.2057 102.471V100.055C80.2057 99.6086 80.5651 99.2491 81.0113 99.2491H84.2336C84.6798 99.2491 85.0392 99.6086 85.0392 100.055V109.716C85.0392 110.162 84.6798 110.521 84.2336 110.521H71.3566C70.9104 110.521 70.551 110.162 70.551 109.716V106.493C70.551 106.047 70.9104 105.688 71.3566 105.688H75.3784" stroke="white" stroke-width="1.3" stroke-miterlimit="10"/>
<path d="M69.95 101.052L73.1909 97.4334L77.2126 99.5899L83.1802 93.7029" stroke="white" stroke-width="1.3" stroke-miterlimit="10"/>
<path d="M80.7324 93.2134H83.6759V96.1507" stroke="white" stroke-width="1.3" stroke-miterlimit="10"/>
</g>
<defs>
<linearGradient id="paint0_linear_2534_22208" x1="131.393" y1="20" x2="131.393" y2="163" gradientUnits="userSpaceOnUse">
<stop stop-color="white"/>
<stop offset="0.442708" stop-color="#E8ECF7"/>
<stop offset="1" stop-color="#F1F5FA" stop-opacity="0"/>
</linearGradient>
<linearGradient id="paint1_linear_2534_22208" x1="132.462" y1="63.5557" x2="132.786" y2="190" gradientUnits="userSpaceOnUse">
<stop stop-color="#E6E6E6"/>
<stop offset="1" stop-color="#E7E7E7" stop-opacity="0"/>
</linearGradient>
<linearGradient id="paint2_linear_2534_22208" x1="132.221" y1="93.3785" x2="132.221" y2="155.379" gradientUnits="userSpaceOnUse">
<stop stop-color="#EFEFEF"/>
<stop offset="1" stop-color="#EFEFEF" stop-opacity="0"/>
</linearGradient>
<linearGradient id="paint3_linear_2534_22208" x1="184.703" y1="71.8591" x2="184.703" y2="142.809" gradientUnits="userSpaceOnUse">
<stop stop-color="#6083FF"/>
<stop offset="1" stop-color="#B6BDFF"/>
</linearGradient>
<linearGradient id="paint4_linear_2534_22208" x1="131.786" y1="39" x2="131.786" y2="92" gradientUnits="userSpaceOnUse">
<stop stop-color="#FFCE20"/>
<stop offset="1" stop-color="#FFE9AC"/>
</linearGradient>
<linearGradient id="paint5_linear_2534_22208" x1="78.6182" y1="76.9269" x2="78.6182" y2="142.303" gradientUnits="userSpaceOnUse">
<stop stop-color="#369FFF"/>
<stop offset="1" stop-color="#88CDFF"/>
</linearGradient>
<clipPath id="clip0_2534_22208">
<rect width="230" height="162" fill="white"/>
</clipPath>
</defs>
</svg>
